<?xml version="1.0" standalone="no"?>
<!DOCTYPE svg PUBLIC "-//W3C//DTD SVG 20010904//EN"
 "http://www.w3.org/TR/2001/REC-SVG-20010904/DTD/svg10.dtd">
<svg version="1.0" xmlns="http://www.w3.org/2000/svg"
 width="912.000000pt" height="912.000000pt" viewBox="0 0 912.000000 912.000000"
 preserveAspectRatio="xMidYMid meet">

<g transform="translate(0.000000,912.000000) scale(0.100000,-0.100000)"
fill="#000000" stroke="none">
<path d="M782 5823 c2 -286 4 -345 8 -223 3 91 7 145 9 120 2 -27 5 -36 8 -22
6 30 68 32 76 2 3 -13 14 -20 30 -20 46 0 87 12 87 26 0 8 10 14 25 14 17 0
25 6 26 18 0 9 6 1 13 -18 11 -29 14 -32 18 -15 5 19 6 19 7 -2 0 -12 6 -25
11 -28 6 -3 10 -17 10 -30 0 -13 5 -46 12 -74 l11 -51 109 0 c89 0 110 3 115
16 4 12 14 14 44 9 25 -4 39 -3 39 4 0 12 29 3 49 -16 17 -18 37 -11 33 11 -2
9 4 16 13 16 9 0 26 7 39 15 20 14 76 15 404 13 367 -3 381 -4 404 -23 15 -14
35 -20 61 -19 27 1 37 -3 37 -14 0 -11 8 -13 38 -8 20 3 90 6 154 6 103 0 117
2 121 18 4 13 5 11 6 -5 1 -13 7 -23 16 -23 13 0 15 32 15 233 l0 232 -698 3
c-383 1 -732 5 -774 8 l-78 6 0 39 c0 32 3 39 20 39 17 0 20 7 20 40 0 33 -3
40 -20 40 -19 0 -24 9 -21 36 1 8 -73 12 -249 13 l-250 2 2 -388z m1613 -234
c11 -17 -1 -21 -15 -4 -8 9 -8 15 -2 15 6 0 14 -5 17 -11z"/>
<path d="M1647 5509 c8 -8 22 -8 50 -1 l38 10 -49 1 c-37 1 -47 -2 -39 -10z"/>
<path d="M2333 5495 c0 -8 4 -12 8 -9 5 2 10 -26 12 -63 l3 -68 2 66 c1 45 -2
70 -11 78 -10 8 -14 7 -14 -4z"/>
<path d="M1573 5485 c-3 -9 -3 -18 -1 -21 3 -3 8 4 11 16 6 23 -1 27 -10 5z"/>
<path d="M2433 5425 c0 -38 2 -53 4 -32 2 20 2 52 0 70 -2 17 -4 1 -4 -38z"/>
<path d="M1492 5460 c0 -14 2 -19 5 -12 2 6 2 18 0 25 -3 6 -5 1 -5 -13z"/>
<path d="M1572 5420 c0 -14 2 -19 5 -12 2 6 2 18 0 25 -3 6 -5 1 -5 -13z"/>
<path d="M3099 5131 c-34 -27 -34 -103 0 -149 l23 -33 21 29 c23 32 74 70 82
62 2 -3 12 5 20 18 9 12 20 20 25 17 5 -3 11 -1 15 4 3 6 -13 24 -36 41 -51
36 -113 41 -150 11z"/>
<path d="M3513 5143 c9 -2 25 -2 35 0 9 3 1 5 -18 5 -19 0 -27 -2 -17 -5z"/>
<path d="M3649 5137 c5 -5 24 -7 42 -5 33 3 33 4 -8 8 -23 3 -39 2 -34 -3z"/>
<path d="M3912 5120 c-27 -20 -39 -35 -36 -45 3 -8 10 -13 14 -10 4 3 13 -2
19 -9 10 -12 8 -15 -6 -19 -10 -2 -7 -3 7 -2 34 4 56 -9 89 -55 26 -37 29 -38
43 -22 44 50 52 133 18 170 -32 34 -96 30 -148 -8z"/>
<path d="M3331 5099 c-13 -5 -21 -12 -18 -15 3 -3 18 1 34 10 31 17 21 20 -16
5z"/>
<path d="M3800 5100 c0 -6 7 -10 15 -10 8 0 15 2 15 4 0 2 -7 6 -15 10 -8 3
-15 1 -15 -4z"/>
<path d="M3313 5025 c0 -8 4 -12 9 -9 5 3 6 10 3 15 -9 13 -12 11 -12 -6z"/>
<path d="M3840 5030 c-9 -6 -10 -10 -3 -10 6 0 15 5 18 10 8 12 4 12 -15 0z"/>
<path d="M3213 5023 c9 -2 25 -2 35 0 9 3 1 5 -18 5 -19 0 -27 -2 -17 -5z"/>
<path d="M8075 5016 c-35 -15 -70 -74 -80 -133 -8 -49 -6 -49 56 -28 24 9 76
19 114 23 78 8 80 12 48 80 -27 57 -86 82 -138 58z"/>
<path d="M3733 4985 c0 -7 6 -11 14 -8 7 3 13 6 13 8 0 2 -6 5 -13 8 -8 3 -14
-1 -14 -8z"/>
<path d="M3465 4950 c-3 -5 -1 -10 4 -10 6 0 11 5 11 10 0 6 -2 10 -4 10 -3 0
-8 -4 -11 -10z"/>
<path d="M3640 4916 c0 -2 7 -7 16 -10 8 -3 12 -2 9 4 -6 10 -25 14 -25 6z"/>
<path d="M3621 4857 c-1 -11 -6 -15 -13 -11 -7 5 -8 3 -3 -5 10 -16 29 2 22
21 -4 8 -6 7 -6 -5z"/>
<path d="M3540 4841 c0 -6 4 -13 10 -16 6 -3 7 1 4 9 -7 18 -14 21 -14 7z"/>
<path d="M3560 4785 c0 -8 4 -15 10 -15 5 0 7 7 4 15 -4 8 -8 15 -10 15 -2 0
-4 -7 -4 -15z"/>
<path d="M3319 4751 c-32 -33 -36 -58 -14 -101 34 -66 141 -56 165 14 30 93
-81 156 -151 87z m114 -13 c16 -24 0 -67 -27 -74 -52 -13 -86 20 -71 67 13 39
76 43 98 7z m-40 -105 c-7 -2 -21 -2 -30 0 -10 3 -4 5 12 5 17 0 24 -2 18 -5z"/>
<path d="M3715 4755 c-33 -32 -34 -93 -2 -122 56 -53 157 -17 157 56 0 17 -11
42 -26 60 -34 41 -92 44 -129 6z m103 -7 c7 -7 12 -24 12 -38 0 -14 -5 -31
-12 -38 -17 -17 -58 -15 -80 5 -20 18 -23 36 -8 64 12 22 68 27 88 7z m-35
-115 c-7 -2 -21 -2 -30 0 -10 3 -4 5 12 5 17 0 24 -2 18 -5z"/>
<path d="M3572 4735 c0 -16 2 -22 5 -12 2 9 2 23 0 30 -3 6 -5 -1 -5 -18z"/>
<path d="M8575 4650 c-3 -5 -1 -18 4 -29 6 -11 16 -63 23 -115 13 -107 10
-104 87 -68 105 49 80 171 -43 207 -59 18 -63 18 -71 5z"/>
<path d="M7785 4509 c-29 -35 -31 -85 -4 -102 42 -26 124 67 99 113 -17 32
-63 26 -95 -11z m65 -31 c0 -27 -27 -58 -52 -58 -13 0 -18 7 -18 28 0 34 16
52 47 52 17 0 23 -6 23 -22z"/>
<path d="M3832 4445 c-24 -18 -48 -36 -55 -38 -7 -3 2 -19 24 -43 20 -22 34
-45 32 -51 -3 -7 0 -13 6 -13 6 0 11 -7 11 -15 0 -12 20 -15 119 -15 l119 0
28 33 c33 39 74 124 74 155 0 22 -1 22 -157 21 l-158 0 -43 -34z"/>
<path d="M4208 4422 c-5 -47 -19 -92 -46 -144 -2 -5 10 -8 27 -8 l31 0 0 105
c0 58 -2 105 -4 105 -2 0 -6 -26 -8 -58z"/>
<path d="M5245 3613 l6 -867 107 -69 c59 -39 130 -85 158 -103 l51 -34 866 0
866 0 3 113 c2 61 0 191 -4 287 -3 96 -4 434 -1 750 l4 575 -108 70 c-59 38
-134 86 -166 107 l-58 38 -377 -1 c-207 0 -397 -4 -422 -8 l-45 -8 45 -3 45
-3 -50 -7 c-27 -4 -40 -8 -29 -8 23 -2 34 -34 34 -102 0 -75 21 -70 -307 -70
l-294 0 -160 105 c-88 58 -162 105 -165 105 -3 0 -3 -390 1 -867z m869 95 c35
-50 5 -118 -52 -118 -62 0 -95 77 -52 120 28 28 84 27 104 -2z m754 -10 c15
-15 15 -61 0 -76 -9 -9 -93 -12 -314 -12 -262 0 -305 2 -318 16 -19 18 -21 55
-4 72 17 17 619 17 636 0z m-763 -243 c28 -27 32 -70 10 -101 -8 -12 -13 -23
-10 -25 2 -2 -15 -3 -38 -2 -73 2 -104 77 -52 128 31 32 59 32 90 0z m760 -19
c25 -25 25 -44 2 -73 -7 -10 -83 -13 -317 -13 l-308 0 -15 23 c-12 19 -13 27
-2 47 7 13 21 27 31 31 11 4 146 8 302 8 l282 1 25 -24z m-755 -246 c43 -43
11 -120 -50 -120 -59 0 -90 67 -54 118 20 29 76 30 104 2z m748 -6 c24 -17 30
-62 10 -82 -9 -9 -93 -12 -314 -12 -328 0 -334 1 -334 55 0 52 20 55 330 55
242 0 289 -2 308 -16z"/>
<path d="M3260 4466 c0 -2 7 -7 16 -10 8 -3 12 -2 9 4 -6 10 -25 14 -25 6z"/>
<path d="M3344 4407 c25 -22 28 -28 17 -41 -8 -9 -9 -16 -3 -16 10 0 37 29 31
33 -2 2 -20 14 -39 26 l-35 23 29 -25z"/>
<path d="M8029 4406 c-48 -24 -62 -87 -28 -130 28 -35 61 -33 93 5 56 66 6
161 -65 125z m35 -32 c32 -32 8 -89 -35 -82 -19 2 -25 10 -27 34 -2 19 3 38
13 48 20 20 29 20 49 0z m33 -56 c-3 -7 -5 -2 -5 12 0 14 2 19 5 13 2 -7 2
-19 0 -25z"/>
<path d="M3430 4360 c8 -5 24 -10 34 -10 26 0 18 6 -19 14 -22 5 -26 4 -15 -4z"/>
<path d="M3392 4337 c-17 -20 -5 -25 33 -16 22 5 24 7 8 8 -12 0 -23 6 -25 12
-2 7 -8 6 -16 -4z"/>
<path d="M3628 4333 c7 -3 16 -2 19 1 4 3 -2 6 -13 5 -11 0 -14 -3 -6 -6z"/>
<path d="M3345 4310 c3 -5 8 -10 11 -10 2 0 4 5 4 10 0 6 -5 10 -11 10 -5 0
-7 -4 -4 -10z"/>
<path d="M3366 4294 c-3 -8 -2 -13 3 -9 5 3 12 -1 14 -7 4 -8 6 -7 6 4 1 23
-15 32 -23 12z"/>
<path d="M3510 4298 c0 -4 4 -8 9 -8 6 0 12 4 15 8 3 5 -1 9 -9 9 -8 0 -15 -4
-15 -9z"/>
<path d="M3682 4286 c7 -8 15 -12 17 -11 5 6 -10 25 -20 25 -5 0 -4 -6 3 -14z"/>
<path d="M3288 4273 c6 -2 18 -2 25 0 6 3 1 5 -13 5 -14 0 -19 -2 -12 -5z"/>
<path d="M777 3600 c-5 -289 -7 -597 -5 -685 l3 -160 165 -112 165 -112 1725
2 1725 2 3 335 c2 229 -1 373 -10 455 -11 103 -14 114 -19 75 l-6 -45 -1 43
c-2 35 -5 42 -22 42 -13 0 -20 -7 -20 -20 0 -18 -7 -20 -80 -20 -73 0 -80 2
-80 20 0 18 -7 20 -79 20 -75 0 -80 1 -84 23 -2 12 -5 -81 -6 -206 -1 -250 -5
-267 -61 -301 -25 -14 -73 -16 -397 -16 -351 0 -369 1 -401 20 -58 36 -62 57
-64 382 -1 162 -4 255 -7 208 -3 -47 -10 -91 -14 -97 -6 -10 -50 -13 -162 -13
-148 0 -154 -1 -160 -21 -6 -18 -9 -19 -20 -8 -17 18 -34 173 -37 344 -1 72
-5 132 -9 135 -11 7 -1586 -7 -1645 -15 l-50 -7 -12 73 c-6 41 -16 75 -21 77
-6 2 -11 15 -11 28 0 23 -3 24 -60 24 -53 0 -60 -2 -60 -20 0 -18 -7 -20 -80
-20 -69 0 -80 -2 -82 -17 -1 -10 -4 11 -7 47 -4 36 -10 -171 -14 -460z m646
273 c-35 -2 -91 -2 -125 0 -35 2 -7 3 62 3 69 0 97 -1 63 -3z m1130 0 c-144
-2 -382 -2 -530 0 -147 1 -29 2 262 2 292 0 412 -1 268 -2z m-136 -39 c-3 -3
-12 -4 -19 -1 -8 3 -5 6 6 6 11 1 17 -2 13 -5z m-10 -24 c58 -35 58 -31 54
-440 -3 -409 -4 -416 -61 -445 -42 -22 -747 -22 -789 -1 -61 32 -61 28 -61
445 -1 341 1 383 16 406 35 54 39 54 439 55 349 0 372 -1 402 -20z m1903 -395
c0 -10 -11 -15 -35 -15 -24 0 -35 5 -35 15 0 10 11 15 35 15 24 0 35 -5 35
-15z"/>
<path d="M1621 3742 c-9 -16 -21 -532 -13 -532 2 0 39 29 83 65 44 36 88 65
98 65 10 0 45 -20 77 -45 31 -25 60 -45 64 -45 3 0 63 59 134 130 168 169 163
169 293 15 l42 -50 0 188 c1 112 -3 196 -9 208 -10 18 -25 19 -385 19 -353 0
-375 -1 -384 -18z m287 -49 c31 -19 62 -72 62 -106 0 -40 -33 -99 -68 -119
-91 -53 -211 24 -198 126 12 101 119 153 204 99z"/>
<path d="M1780 3623 c-25 -32 -20 -69 12 -95 45 -39 111 -8 111 52 0 68 -81
96 -123 43z"/>
<path d="M2080 3315 c-74 -74 -142 -135 -150 -135 -8 0 -42 22 -75 49 -34 28
-65 46 -72 43 -6 -4 -50 -40 -97 -80 -81 -68 -86 -75 -86 -111 0 -45 15 -92
33 -103 7 -4 175 -8 374 -8 315 0 364 2 377 16 13 12 16 40 16 136 l0 120 -37
46 c-70 87 -135 162 -142 162 -3 0 -67 -61 -141 -135z"/>
<path d="M3533 3793 c87 -2 227 -2 310 0 84 1 13 3 -158 3 -170 0 -239 -2
-152 -3z"/>
<path d="M4078 3573 c-1 -98 -2 -186 -1 -195 0 -11 -8 -18 -19 -18 -11 0 -18
7 -18 20 0 11 -5 20 -11 20 -7 0 -18 8 -25 18 -11 14 -13 3 -14 -81 l0 -98
-57 1 c-32 0 -76 -2 -98 -5 -34 -5 -44 -2 -70 22 -19 18 -30 38 -30 55 0 37
46 88 79 88 14 0 26 5 26 10 0 13 -12 13 -45 0 -14 -5 -24 -6 -21 -2 2 4 1 14
-5 22 -6 11 -9 9 -9 -11 0 -14 -2 -28 -5 -31 -9 -9 -80 20 -77 31 1 6 -3 11
-9 11 -6 0 -9 -3 -7 -7 18 -37 52 -115 63 -145 l13 -38 -53 0 c-49 0 -53 2
-65 30 -12 29 -15 30 -70 29 -53 -2 -57 -4 -67 -30 -10 -27 -15 -29 -62 -29
-28 0 -51 4 -51 9 0 5 11 33 24 62 26 60 42 110 29 93 -4 -6 -19 -10 -33 -10
-14 1 -26 -3 -27 -8 -2 -11 -24 -26 -38 -26 -7 0 -12 50 -13 137 -5 249 -12
152 -12 -160 0 -305 0 -306 22 -321 19 -14 72 -16 375 -16 340 0 354 1 373 20
19 19 20 33 20 375 0 195 -2 355 -5 355 -3 0 -6 -80 -7 -177z"/>
<path d="M3846 3512 c-2 -4 14 -8 37 -10 47 -3 47 2 0 11 -18 4 -34 3 -37 -1z"/>
<path d="M3760 3506 c0 -2 7 -7 16 -10 8 -3 12 -2 9 4 -6 10 -25 14 -25 6z"/>
<path d="M3808 3503 c7 -3 16 -2 19 1 4 3 -2 6 -13 5 -11 0 -14 -3 -6 -6z"/>
<path d="M3443 3475 c0 -8 4 -15 9 -15 4 0 8 4 8 9 0 6 -4 12 -8 15 -5 3 -9
-1 -9 -9z"/>
<path d="M3971 3463 c7 -12 15 -20 18 -17 3 2 -3 12 -13 22 -17 16 -18 16 -5
-5z"/>
<path d="M3650 3448 c0 -4 4 -8 9 -8 6 0 12 4 15 8 3 5 -1 9 -9 9 -8 0 -15 -4
-15 -9z"/>
<path d="M3435 3439 c-4 -6 -5 -12 -2 -15 2 -3 7 2 10 11 7 17 1 20 -8 4z"/>
<path d="M3533 3410 c-11 -28 -10 -30 14 -30 21 0 23 3 18 23 -12 36 -20 38
-32 7z"/>
<path d="M3855 3410 c-3 -5 3 -10 15 -10 12 0 18 5 15 10 -3 6 -10 10 -15 10
-5 0 -12 -4 -15 -10z"/>
<path d="M3835 3330 c-9 -14 3 -30 24 -30 18 0 41 18 41 32 0 12 -58 10 -65
-2z"/>
</g>
</svg>
