<?xml version="1.0" standalone="no"?>
<!DOCTYPE svg PUBLIC "-//W3C//DTD SVG 20010904//EN"
 "http://www.w3.org/TR/2001/REC-SVG-20010904/DTD/svg10.dtd">
<svg version="1.0" xmlns="http://www.w3.org/2000/svg"
 width="969.000000pt" height="969.000000pt" viewBox="0 0 969.000000 969.000000"
 preserveAspectRatio="xMidYMid meet">

<g transform="translate(0.000000,969.000000) scale(0.100000,-0.100000)"
fill="#000000" stroke="none">
<path d="M544 4492 c-106 -50 -133 -182 -65 -324 28 -59 81 -125 81 -101 0 6
20 38 45 72 31 42 52 61 67 61 12 0 18 3 15 7 -8 7 21 43 34 43 4 0 20 11 35
25 27 25 51 34 39 15 -9 -15 26 1 52 23 12 11 20 24 17 29 -3 4 -1 8 5 8 5 0
12 -6 14 -12 4 -10 6 -10 6 0 1 6 11 12 24 13 21 0 21 1 -3 10 -14 6 -43 28
-65 49 -87 84 -219 120 -301 82z m291 -172 c-19 -21 -35 -26 -35 -12 0 5 10
14 23 20 31 15 32 14 12 -8z"/>
<path d="M1400 4501 c-22 -7 -19 -9 23 -16 26 -4 51 -5 54 -1 4 3 -5 7 -18 8
-13 1 21 5 76 8 l100 6 -105 1 c-58 1 -116 -2 -130 -6z"/>
<path d="M2313 4475 c-85 -42 -186 -145 -142 -145 5 0 7 5 4 10 -10 16 11 11
26 -6 7 -8 29 -24 49 -34 20 -10 42 -26 49 -34 14 -16 -2 -19 -106 -20 -13 0
-23 -4 -23 -8 0 -4 38 -4 85 -1 l85 6 41 -44 c22 -24 58 -70 78 -102 l38 -58
33 38 c53 60 83 137 88 223 3 65 0 81 -20 119 -51 96 -162 117 -285 56z"/>
<path d="M1300 4493 c-14 -2 -32 -7 -40 -10 -21 -9 -40 -12 -77 -15 -18 -2
-33 -6 -33 -9 0 -10 90 -2 125 10 17 5 46 14 65 19 27 8 29 10 10 10 -14 -1
-36 -3 -50 -5z"/>
<path d="M1665 4493 c39 -5 184 -32 210 -40 11 -3 17 -2 13 2 -11 12 -178 45
-218 43 -33 -1 -33 -1 -5 -5z"/>
<path d="M7975 4470 c-17 -6 -15 -8 10 -13 35 -6 40 -4 23 10 -7 6 -22 7 -33
3z"/>
<path d="M8078 4473 c23 -2 59 -2 80 0 20 2 1 4 -43 4 -44 0 -61 -2 -37 -4z"/>
<path d="M7908 4453 c6 -2 18 -2 25 0 6 3 1 5 -13 5 -14 0 -19 -2 -12 -5z"/>
<path d="M8040 4440 c0 -11 1 -20 3 -20 1 0 10 9 20 20 16 19 16 20 -3 20 -13
0 -20 -7 -20 -20z"/>
<path d="M8258 4453 c7 -3 16 -2 19 1 4 3 -2 6 -13 5 -11 0 -14 -3 -6 -6z"/>
<path d="M8305 4443 c11 -3 24 -11 28 -19 9 -16 27 -19 27 -3 0 5 -4 8 -9 5
-5 -3 -11 1 -15 9 -3 8 -16 14 -28 14 -21 -1 -21 -2 -3 -6z"/>
<path d="M1963 4425 c0 -8 4 -15 9 -15 4 0 8 4 8 9 0 6 -4 12 -8 15 -5 3 -9
-1 -9 -9z"/>
<path d="M7805 4420 c-16 -7 -17 -9 -3 -9 9 -1 20 4 23 9 7 11 7 11 -20 0z"/>
<path d="M1012 4400 c-10 -17 -10 -20 3 -20 8 0 19 9 25 20 8 15 8 20 -2 20
-7 0 -19 -9 -26 -20z"/>
<path d="M1998 4413 c7 -3 16 -2 19 1 4 3 -2 6 -13 5 -11 0 -14 -3 -6 -6z"/>
<path d="M8385 4410 c27 -12 43 -12 25 0 -8 5 -22 9 -30 9 -10 0 -8 -3 5 -9z"/>
<path d="M955 4390 c-22 -10 -36 -19 -32 -19 12 -1 77 27 77 33 0 7 3 8 -45
-14z"/>
<path d="M2043 4388 c0 -13 1 -17 4 -10 6 15 34 16 31 0 -4 -17 32 -22 46 -7
8 9 8 10 -1 5 -7 -4 -13 -3 -13 2 0 7 -50 32 -64 32 -1 0 -2 -10 -3 -22z"/>
<path d="M7080 4378 c-55 -30 -89 -87 -97 -162 -9 -91 51 -222 141 -304 26
-24 52 -42 59 -39 6 2 26 27 43 56 43 72 95 132 107 124 6 -4 7 -1 2 6 -9 16
52 81 70 75 15 -6 37 19 33 37 -2 8 5 13 14 13 10 -1 14 4 11 11 -4 12 32 32
50 27 4 -1 7 3 7 8 0 12 -6 13 -29 1 -14 -8 -30 2 -83 54 -82 80 -134 107
-218 112 -55 4 -72 1 -110 -19z"/>
<path d="M8939 4386 c-60 -21 -106 -54 -162 -116 -29 -33 -58 -56 -63 -52 -5
4 8 -8 28 -26 21 -19 35 -39 32 -44 -5 -7 -2 -8 5 -4 8 5 28 -9 56 -39 36 -40
64 -83 153 -234 21 -36 140 77 189 178 24 49 28 68 28 147 0 84 -2 93 -29 128
-42 56 -81 76 -146 76 -30 -1 -71 -7 -91 -14z"/>
<path d="M7706 4367 c3 -10 9 -15 12 -12 3 3 0 11 -7 18 -10 9 -11 8 -5 -6z"/>
<path d="M7649 4349 c-8 -4 -14 -14 -14 -21 0 -8 -9 -12 -22 -10 -12 2 -24 -1
-27 -7 -3 -5 3 -7 14 -4 13 3 20 0 20 -8 1 -11 4 -10 13 2 7 9 22 19 35 23 12
4 22 11 22 16 0 13 -26 19 -41 9z m16 -9 c-3 -5 -12 -10 -18 -10 -7 0 -6 4 3
10 19 12 23 12 15 0z"/>
<path d="M8517 4349 c7 -7 15 -10 18 -7 3 3 -2 9 -12 12 -14 6 -15 5 -6 -5z"/>
<path d="M8559 4322 c6 -10 7 -23 3 -27 -4 -4 4 -5 17 -2 14 3 32 1 40 -6 14
-10 14 -10 4 3 -6 8 -26 23 -43 34 -32 18 -32 18 -21 -2z"/>
<path d="M7545 4280 c-3 -5 -1 -10 4 -10 6 0 11 5 11 10 0 6 -2 10 -4 10 -3 0
-8 -4 -11 -10z"/>
<path d="M8600 4276 c0 -2 8 -10 18 -17 15 -13 16 -12 3 4 -13 16 -21 21 -21
13z"/>
<path d="M760 4230 c0 -17 6 -20 43 -19 23 1 32 4 20 6 -13 2 -23 11 -23 19 0
8 -9 14 -20 14 -13 0 -20 -7 -20 -20z"/>
<path d="M2140 4230 c-13 -8 -12 -10 3 -10 9 0 17 5 17 10 0 12 -1 12 -20 0z"/>
<path d="M2075 4210 c-7 -12 2 -12 30 0 19 8 19 9 -2 9 -12 1 -25 -3 -28 -9z"/>
<path d="M878 4203 c12 -2 30 -2 40 0 9 3 -1 5 -23 4 -22 0 -30 -2 -17 -4z"/>
<path d="M945 4200 c-4 -6 3 -10 14 -10 25 0 27 6 6 13 -8 4 -17 2 -20 -3z"/>
<path d="M2030 4206 c0 -2 7 -7 16 -10 8 -3 12 -2 9 4 -6 10 -25 14 -25 6z"/>
<path d="M991 4186 c12 -10 60 -16 54 -6 -3 5 -18 10 -32 10 -15 0 -24 -2 -22
-4z"/>
<path d="M2000 4180 c0 -5 7 -7 15 -4 8 4 15 8 15 10 0 2 -7 4 -15 4 -8 0 -15
-4 -15 -10z"/>
<path d="M1940 4166 c0 -2 7 -7 16 -10 8 -3 12 -2 9 4 -6 10 -25 14 -25 6z"/>
<path d="M8700 4160 l-25 -8 25 -2 25 -2 -25 -9 c-21 -7 -20 -8 9 -4 18 3 37
5 42 5 5 0 9 4 9 9 0 5 -10 7 -22 4 -19 -4 -20 -3 -8 6 17 12 6 13 -30 1z"/>
<path d="M1927 4145 c3 -8 9 -12 14 -9 12 7 11 11 -5 17 -10 4 -13 1 -9 -8z"/>
<path d="M8550 4114 c0 -11 -5 -14 -17 -9 -13 4 -15 3 -7 -5 10 -10 64 2 64
14 0 3 -7 2 -17 -1 -11 -4 -14 -3 -9 5 4 7 2 12 -3 12 -6 0 -11 -7 -11 -16z"/>
<path d="M7379 4103 c-13 -16 -12 -17 4 -4 16 13 21 21 13 21 -2 0 -10 -8 -17
-17z"/>
<path d="M1840 4081 c-14 -4 -20 -10 -14 -14 6 -3 20 0 30 8 21 16 20 16 -16
6z"/>
<path d="M8447 4077 c-4 -10 1 -14 16 -13 20 1 38 26 18 26 -6 0 -11 -6 -11
-12 0 -10 -2 -10 -9 0 -7 11 -9 11 -14 -1z"/>
<path d="M1797 4053 c-12 -12 -7 -22 8 -17 8 4 15 10 15 15 0 11 -14 12 -23 2z"/>
<path d="M1307 4044 c-4 -4 -7 -14 -7 -23 0 -11 3 -12 11 -4 6 6 10 16 7 23
-2 6 -7 8 -11 4z"/>
<path d="M7388 4043 c6 -2 18 -2 25 0 6 3 1 5 -13 5 -14 0 -19 -2 -12 -5z"/>
<path d="M7458 4043 c12 -2 32 -2 45 0 12 2 2 4 -23 4 -25 0 -35 -2 -22 -4z"/>
<path d="M7588 4033 c7 -3 16 -2 19 1 4 3 -2 6 -13 5 -11 0 -14 -3 -6 -6z"/>
<path d="M1345 4000 c3 -5 8 -10 11 -10 2 0 4 5 4 10 0 6 -5 10 -11 10 -5 0
-7 -4 -4 -10z"/>
<path d="M7732 4001 c-11 -6 -10 -10 4 -15 20 -8 32 0 18 14 -5 5 -15 5 -22 1z"/>
<path d="M8355 4001 c-11 -5 -23 -7 -27 -4 -12 6 -10 -15 2 -22 5 -3 20 3 32
14 24 23 23 24 -7 12z"/>
<path d="M1370 3964 c-10 -12 -11 -17 -1 -27 10 -9 11 -8 6 5 -4 11 -1 17 12
20 12 2 14 6 7 11 -7 4 -17 0 -24 -9z"/>
<path d="M1720 3960 c0 -5 5 -10 10 -10 6 0 10 5 10 10 0 6 -4 10 -10 10 -5 0
-10 -4 -10 -10z"/>
<path d="M7789 3961 c12 -8 51 -4 51 5 0 2 -15 4 -32 4 -23 0 -29 -3 -19 -9z"/>
<path d="M8303 3958 c1 -7 -3 -12 -10 -11 -7 2 -10 -4 -6 -12 4 -12 9 -13 19
-4 16 13 19 39 4 39 -5 0 -9 -6 -7 -12z"/>
<path d="M1653 3883 c19 -5 18 -30 -1 -26 -6 2 -9 -4 -5 -13 6 -17 10 -14 34
29 8 14 6 17 -18 16 -18 -1 -22 -3 -10 -6z"/>
<path d="M7910 3845 c0 -2 6 -8 13 -14 10 -8 14 -7 14 2 0 8 -6 14 -14 14 -7
0 -13 -1 -13 -2z"/>
<path d="M1635 3810 c-3 -5 -13 -7 -23 -4 -10 4 -13 3 -6 -3 6 -4 13 -13 15
-20 2 -7 9 -1 16 12 11 24 10 34 -2 15z"/>
<path d="M7945 3810 c-6 -10 1 -14 19 -11 5 1 6 -4 3 -12 -3 -8 3 -27 14 -43
10 -16 19 -25 19 -21 0 4 -8 20 -17 34 -15 23 -15 26 -3 21 11 -4 16 0 16 12
0 10 -4 16 -9 13 -4 -2 -14 0 -22 7 -9 7 -15 8 -20 0z"/>
<path d="M1457 3794 c7 -3 9 -12 6 -21 -4 -11 -2 -14 5 -9 18 11 14 36 -5 35
-10 0 -13 -3 -6 -5z"/>
<path d="M7445 3754 c-132 -68 -153 -233 -42 -331 89 -78 229 -60 294 39 24
36 28 52 28 113 0 60 -4 77 -25 107 -40 60 -94 88 -165 88 -35 0 -73 -7 -90
-16z m132 -29 c12 -3 34 -20 48 -36 77 -92 -27 -232 -138 -186 -43 18 -77 68
-77 113 0 43 39 97 80 111 34 11 42 11 87 -2z m-51 -275 c19 0 34 -4 34 -10 0
-12 -97 -13 -104 -1 -8 12 6 22 22 16 7 -3 29 -5 48 -5z"/>
<path d="M8535 3751 c-41 -25 -82 -70 -94 -104 -15 -39 -14 -111 2 -150 18
-42 85 -101 131 -117 117 -38 256 67 256 194 -1 76 -57 160 -123 185 -46 18
-138 13 -172 -8z m158 -33 c27 -14 57 -69 57 -103 0 -75 -80 -137 -150 -116
-59 17 -85 53 -85 116 0 43 5 59 24 79 40 42 100 52 154 24z m-33 -279 c0 -11
-97 -12 -104 0 -3 4 -4 10 -2 12 8 8 106 -3 106 -12z"/>
<path d="M1476 3725 c4 -16 11 -37 15 -45 6 -10 7 -4 3 15 -4 17 -11 37 -15
45 -6 10 -7 4 -3 -15z"/>
<path d="M8160 3735 c0 -8 2 -15 4 -15 2 0 6 7 10 15 3 8 1 15 -4 15 -6 0 -10
-7 -10 -15z"/>
<path d="M1046 3676 c-78 -29 -126 -99 -126 -185 0 -249 371 -261 388 -13 9
142 -130 247 -262 198z m119 -40 c69 -29 86 -121 35 -180 -36 -40 -76 -52
-125 -36 -46 15 -75 57 -75 110 0 52 13 76 53 100 38 24 66 25 112 6z m-25
-273 c10 -9 -25 -21 -49 -17 -38 7 -51 12 -51 22 0 9 90 4 100 -5z"/>
<path d="M1896 3676 c-79 -30 -129 -100 -128 -182 1 -97 61 -174 152 -193 76
-16 136 4 188 63 132 151 -24 381 -212 312z m120 -42 c69 -33 85 -119 33 -178
-37 -43 -81 -54 -132 -33 -91 39 -95 168 -6 214 33 17 64 16 105 -3z m-60
-264 c34 0 46 -13 21 -23 -22 -8 -80 7 -85 22 -3 10 0 12 12 8 10 -4 33 -7 52
-7z"/>
<path d="M8010 3683 c0 -10 19 -40 21 -33 0 3 2 13 4 23 2 9 -3 17 -11 17 -8
0 -14 -3 -14 -7z"/>
<path d="M8120 3671 c0 -5 5 -13 10 -16 6 -3 10 -2 10 4 0 5 -4 13 -10 16 -5
3 -10 2 -10 -4z"/>
<path d="M1501 3638 c1 -7 5 -24 9 -38 8 -24 8 -24 9 7 1 17 -3 35 -9 38 -5 3
-10 0 -9 -7z"/>
<path d="M8031 3624 c0 -11 3 -14 6 -6 3 7 2 16 -1 19 -3 4 -6 -2 -5 -13z"/>
<path d="M1522 3545 c0 -16 2 -22 5 -12 2 9 2 23 0 30 -3 6 -5 -1 -5 -18z"/>
<path d="M8077 3483 c-4 -3 -7 -13 -7 -22 1 -13 3 -13 11 2 11 19 8 33 -4 20z"/>
<path d="M1933 2825 c0 -8 4 -15 9 -15 4 0 8 4 8 9 0 6 -4 12 -8 15 -5 3 -9
-1 -9 -9z"/>
<path d="M1845 2800 c-16 -7 -17 -9 -3 -9 9 -1 20 4 23 9 7 11 7 11 -20 0z"/>
<path d="M1157 2783 c3 -7 13 -13 22 -13 13 0 13 2 2 9 -11 7 -11 9 0 14 8 3
4 4 -7 4 -14 -1 -20 -6 -17 -14z"/>
<path d="M1817 2776 c4 -5 -3 -7 -15 -4 -13 4 -20 2 -19 -5 4 -24 27 -37 61
-37 31 0 36 3 36 24 0 20 -6 25 -34 28 -20 2 -32 0 -29 -6z"/>
<path d="M1083 2746 c-3 -6 -3 -8 2 -4 4 4 13 3 20 -2 8 -7 12 -5 12 3 0 16
-25 18 -34 3z"/>
<path d="M1320 2738 c0 -4 14 -8 30 -8 17 0 30 2 30 4 0 2 -13 6 -30 8 -16 3
-30 1 -30 -4z"/>
<path d="M1695 2740 c3 -5 8 -10 11 -10 2 0 4 5 4 10 0 6 -5 10 -11 10 -5 0
-7 -4 -4 -10z"/>
<path d="M2000 2742 c0 -5 7 -9 15 -9 8 0 12 4 9 9 -3 4 -9 8 -15 8 -5 0 -9
-4 -9 -8z"/>
<path d="M1648 2733 c7 -3 16 -2 19 1 4 3 -2 6 -13 5 -11 0 -14 -3 -6 -6z"/>
<path d="M8545 2729 c-16 -6 -17 -8 -3 -8 9 -1 18 -9 20 -18 3 -15 5 -14 10 4
7 27 0 33 -27 22z"/>
<path d="M1408 2723 c6 -2 18 -2 25 0 6 3 1 5 -13 5 -14 0 -19 -2 -12 -5z"/>
<path d="M1540 2720 c-17 -6 -9 -7 25 -3 28 3 52 7 54 9 8 7 -54 2 -79 -6z"/>
<path d="M7585 2719 c-4 -6 -4 -13 -1 -16 8 -9 -15 -34 -25 -27 -5 3 -6 -2 -3
-11 4 -9 3 -15 -2 -13 -9 3 -14 -5 -14 -22 0 -5 15 7 34 28 19 20 31 38 26 40
-5 2 -6 10 -3 18 6 16 -3 19 -12 3z"/>
<path d="M7640 2710 c-8 -5 -11 -12 -8 -16 4 -3 14 1 23 10 18 17 9 21 -15 6z"/>
<path d="M8498 2713 c7 -3 16 -2 19 1 4 3 -2 6 -13 5 -11 0 -14 -3 -6 -6z"/>
<path d="M7718 2693 c7 -3 16 -2 19 1 4 3 -2 6 -13 5 -11 0 -14 -3 -6 -6z"/>
<path d="M8428 2693 c7 -3 16 -2 19 1 4 3 -2 6 -13 5 -11 0 -14 -3 -6 -6z"/>
<path d="M7760 2675 c0 -8 4 -15 8 -15 5 0 9 7 9 15 0 8 -4 15 -9 15 -4 0 -8
-7 -8 -15z"/>
<path d="M8378 2683 c6 -2 18 -2 25 0 6 3 1 5 -13 5 -14 0 -19 -2 -12 -5z"/>
<path d="M2045 2672 c-9 -9 6 -21 20 -15 8 3 15 0 15 -6 0 -6 5 -11 10 -11 6
0 6 7 -1 18 -11 18 -33 24 -44 14z"/>
<path d="M7803 2673 c9 -2 23 -2 30 0 6 3 -1 5 -18 5 -16 0 -22 -2 -12 -5z"/>
<path d="M8328 2673 c6 -2 18 -2 25 0 6 3 1 5 -13 5 -14 0 -19 -2 -12 -5z"/>
<path d="M1025 2662 c-5 -4 -17 -16 -25 -27 -11 -15 -7 -14 13 4 24 22 32 31
25 31 -2 0 -7 -4 -13 -8z"/>
<path d="M7871 2659 c6 -3 81 -7 167 -7 87 0 150 1 142 3 -29 7 -320 11 -309
4z"/>
<path d="M8235 2660 c-4 -7 3 -8 22 -4 38 9 42 14 10 14 -14 0 -29 -5 -32 -10z"/>
<path d="M8328 2653 c6 -2 18 -2 25 0 6 3 1 5 -13 5 -14 0 -19 -2 -12 -5z"/>
<path d="M1488 2643 c6 -2 18 -2 25 0 6 3 1 5 -13 5 -14 0 -19 -2 -12 -5z"/>
<path d="M1545 2631 l-40 -7 45 -6 c25 -3 54 -9 65 -12 11 -3 7 0 -9 7 -20 10
-25 16 -15 20 17 7 6 6 -46 -2z"/>
<path d="M2100 2618 c0 -9 7 -19 16 -22 15 -6 15 -4 3 11 -7 10 -15 20 -16 22
-2 2 -3 -3 -3 -11z"/>
<path d="M8644 2620 c3 -8 9 -23 12 -32 4 -10 10 -18 16 -18 9 0 0 20 -22 50
-10 13 -11 13 -6 0z"/>
<path d="M8041 2616 c2 -2 26 -6 53 -9 30 -3 43 -1 35 4 -13 8 -97 13 -88 5z"/>
<path d="M1200 2600 l-235 -6 230 -1 c127 -1 239 2 250 7 11 5 13 8 5 7 -8 -1
-121 -4 -250 -7z"/>
<path d="M7975 2600 c-7 -12 2 -12 30 0 19 8 19 9 -2 9 -12 1 -25 -3 -28 -9z"/>
<path d="M8161 2601 c-9 -6 -7 -10 8 -14 21 -5 39 9 27 20 -3 4 -6 0 -6 -8 0
-10 -2 -11 -8 -2 -4 7 -13 9 -21 4z"/>
<path d="M1698 2593 c34 -2 90 -2 125 0 34 2 6 3 -63 3 -69 0 -97 -1 -62 -3z"/>
<path d="M1987 2593 c18 -2 50 -2 70 0 21 2 7 4 -32 4 -38 0 -55 -2 -38 -4z"/>
<path d="M7933 2586 c0 -8 6 -12 14 -9 7 3 13 9 13 14 0 5 -6 9 -13 9 -8 0
-14 -6 -14 -14z"/>
<path d="M8260 2559 c0 -5 5 -7 10 -4 6 3 10 8 10 11 0 2 -4 4 -10 4 -5 0 -10
-5 -10 -11z"/>
<path d="M7860 2550 c0 -5 5 -10 11 -10 5 0 7 5 4 10 -3 6 -8 10 -11 10 -2 0
-4 -4 -4 -10z"/>
<path d="M7835 2530 c-4 -6 -10 -8 -15 -5 -4 3 -11 -2 -14 -10 -4 -13 -2 -13
14 -5 18 10 36 30 26 30 -3 0 -8 -5 -11 -10z"/>
<path d="M8305 2520 c3 -5 8 -10 11 -10 2 0 4 5 4 10 0 6 -5 10 -11 10 -5 0
-7 -4 -4 -10z"/>
<path d="M8335 2510 c3 -5 11 -10 16 -10 6 0 7 5 4 10 -3 6 -11 10 -16 10 -6
0 -7 -4 -4 -10z"/>
<path d="M8694 2486 c11 -9 24 -16 30 -16 12 0 7 5 -24 19 -24 11 -24 11 -6
-3z"/>
<path d="M7440 2484 c0 -10 31 -36 37 -31 3 3 -2 13 -10 22 -16 15 -27 19 -27
9z"/>
<path d="M7618 2483 c6 -2 18 -2 25 0 6 3 1 5 -13 5 -14 0 -19 -2 -12 -5z"/>
<path d="M7684 2471 c11 -11 23 -21 28 -21 14 0 -1 19 -25 31 -22 12 -22 12
-3 -10z"/>
<path d="M8356 2482 c5 -4 12 -11 15 -15 3 -5 9 -2 12 5 3 9 -3 14 -15 15 -11
1 -16 -1 -12 -5z"/>
<path d="M8400 2476 c0 -8 4 -17 9 -20 5 -4 7 3 4 14 -6 23 -13 26 -13 6z"/>
<path d="M8515 2480 c28 -12 37 -12 30 0 -3 6 -16 10 -28 9 -21 0 -21 -1 -2
-9z"/>
<path d="M7524 2469 c-3 -5 3 -6 13 -2 16 6 16 4 -2 -18 l-20 -24 25 21 c14
12 32 24 40 27 8 2 0 5 -18 4 -18 0 -35 -4 -38 -8z"/>
<path d="M7427 2441 c-4 -17 -3 -21 5 -13 5 5 8 16 6 23 -3 8 -7 3 -11 -10z"/>
<path d="M2180 2430 c0 -5 5 -10 10 -10 6 0 10 5 10 10 0 6 -4 10 -10 10 -5 0
-10 -4 -10 -10z"/>
<path d="M882 2390 c0 -14 2 -19 5 -12 2 6 2 18 0 25 -3 6 -5 1 -5 -13z"/>
<path d="M2190 2292 l0 -122 40 0 c42 0 52 16 30 50 -9 13 -10 13 -11 0 0 -10
-3 -8 -9 5 -7 17 -9 15 -9 -12 -1 -23 -6 -33 -17 -33 -13 0 -15 16 -13 110 1
61 -1 114 -5 117 -3 4 -6 -48 -6 -115z"/>
<path d="M7430 2395 c-9 -10 -9 -15 -1 -15 6 0 11 6 11 13 0 23 20 -17 20 -43
1 -24 2 -24 10 -3 18 45 -12 82 -40 48z"/>
<path d="M7480 2394 c0 -8 5 -12 10 -9 6 3 10 10 10 16 0 5 -4 9 -10 9 -5 0
-10 -7 -10 -16z"/>
<path d="M8621 2393 c7 -12 15 -20 18 -17 3 2 -3 12 -13 22 -17 16 -18 16 -5
-5z"/>
<path d="M2211 2370 c0 -8 4 -22 9 -30 12 -18 12 -2 0 25 -6 13 -9 15 -9 5z"/>
<path d="M7396 2365 c-3 -9 -6 -22 -5 -28 0 -7 5 -1 10 12 5 13 8 26 5 28 -2
2 -6 -3 -10 -12z"/>
<path d="M8659 2365 c0 -11 0 -39 1 -63 1 -25 -5 -53 -14 -67 -19 -28 -20 -39
-5 -29 23 14 38 69 30 107 -6 25 -5 37 3 40 8 3 8 8 -1 18 -11 11 -13 10 -14
-6z"/>
<path d="M8760 2345 c0 -8 4 -15 10 -15 5 0 7 7 4 15 -4 8 -8 15 -10 15 -2 0
-4 -7 -4 -15z"/>
<path d="M884 2255 c0 -49 1 -71 3 -48 2 23 2 64 0 90 -2 26 -3 8 -3 -42z"/>
<path d="M846 2267 c-10 -32 -16 -61 -12 -64 7 -8 25 40 19 51 -3 4 0 12 7 16
6 4 10 18 8 31 -2 18 -8 9 -22 -34z"/>
<path d="M7380 2309 c0 -5 5 -7 10 -4 6 3 10 8 10 11 0 2 -4 4 -10 4 -5 0 -10
-5 -10 -11z"/>
<path d="M8760 2305 c0 -16 16 -20 24 -6 3 5 -1 11 -9 15 -9 3 -15 0 -15 -9z"/>
<path d="M8674 2235 c-8 -21 3 -34 26 -28 27 7 27 43 0 43 -11 0 -23 -7 -26
-15z"/>
<path d="M8801 2193 c-1 -21 -7 -33 -18 -36 -11 -3 -7 -5 10 -6 28 -1 31 6 17
49 -8 24 -8 24 -9 -7z"/>
<path d="M7351 2194 c0 -11 3 -14 6 -6 3 7 2 16 -1 19 -3 4 -6 -2 -5 -13z"/>
<path d="M7490 2181 c0 -5 7 -15 17 -22 15 -13 15 -12 4 9 -12 23 -21 28 -21
13z"/>
<path d="M8576 2164 c-23 -20 -29 -35 -32 -75 -3 -33 -1 -48 6 -44 6 4 8 10 5
15 -3 5 8 19 24 31 17 12 28 26 25 31 -3 5 2 18 11 28 14 15 22 17 37 9 12 -6
24 -7 29 -2 5 5 1 9 -9 10 -35 3 -57 8 -62 15 -3 3 -18 -5 -34 -18z m-2 -35
c-2 -4 4 -10 13 -12 15 -4 15 -5 2 -6 -9 0 -22 5 -28 12 -8 10 -7 14 4 14 8 0
12 -4 9 -8z"/>
<path d="M7400 2160 c0 -4 15 -10 33 -13 17 -3 43 -8 57 -12 22 -7 23 -6 10 7
-16 17 -100 31 -100 18z"/>
</g>
</svg>
