<?xml version="1.0" standalone="no"?>
<!DOCTYPE svg PUBLIC "-//W3C//DTD SVG 20010904//EN"
 "http://www.w3.org/TR/2001/REC-SVG-20010904/DTD/svg10.dtd">
<svg version="1.0" xmlns="http://www.w3.org/2000/svg"
 width="969.000000pt" height="969.000000pt" viewBox="0 0 969.000000 969.000000"
 preserveAspectRatio="xMidYMid meet">

<g transform="translate(0.000000,969.000000) scale(0.100000,-0.100000)"
fill="#000000" stroke="none">
<path d="M548 8194 c-2 -1 -16 -5 -32 -8 -42 -8 -46 -16 -29 -57 13 -35 16
-37 51 -32 47 6 92 -11 92 -35 0 -29 -21 -42 -67 -42 -30 0 -43 -4 -43 -14 0
-7 -3 -27 -6 -43 -5 -25 -2 -31 22 -42 23 -10 30 -10 39 2 5 8 30 17 55 21 54
8 71 20 94 65 12 23 16 44 11 67 -6 37 -46 90 -73 98 -27 9 -111 24 -114 20z"/>
<path d="M8210 8003 c-36 -12 -80 -34 -85 -43 -4 -6 4 -28 16 -50 l22 -40 34
21 c21 13 50 21 79 21 41 0 55 -6 110 -46 8 -7 29 -5 60 5 l47 14 -34 39 c-45
52 -119 86 -184 85 -27 0 -57 -3 -65 -6z"/>
<path d="M465 7866 c-23 -53 -19 -61 34 -78 l50 -16 15 46 c9 25 16 46 16 47
0 1 -6 2 -12 2 -7 0 -30 8 -51 17 l-38 17 -14 -35z"/>
<path d="M4993 7633 c9 -2 25 -2 35 0 9 3 1 5 -18 5 -19 0 -27 -2 -17 -5z"/>
<path d="M5184 7633 c13 -3 15 -7 8 -12 -7 -4 4 -7 23 -7 19 0 35 4 35 8 0 4
-6 8 -14 8 -7 0 -26 2 -42 4 -16 2 -20 1 -10 -1z"/>
<path d="M4888 7613 c7 -3 16 -2 19 1 4 3 -2 6 -13 5 -11 0 -14 -3 -6 -6z"/>
<path d="M5270 7610 c0 -5 3 -9 8 -9 4 1 16 1 27 0 17 -1 18 -3 5 -11 -8 -5
-10 -10 -5 -10 6 0 16 4 23 9 10 6 5 11 -19 20 -39 13 -39 13 -39 1z"/>
<path d="M8420 7595 c-14 -8 -20 -14 -14 -15 5 0 19 7 30 15 24 18 16 19 -16
0z"/>
<path d="M4805 7586 c-18 -13 -18 -14 8 -9 15 3 30 9 33 14 8 14 -20 10 -41
-5z"/>
<path d="M5380 7576 c0 -2 7 -7 16 -10 8 -3 12 -2 9 4 -6 10 -25 14 -25 6z"/>
<path d="M4149 7561 c-81 -26 -119 -87 -119 -189 0 -59 5 -79 35 -140 35 -69
136 -179 155 -167 4 3 22 29 38 58 34 60 83 117 100 117 7 0 11 3 10 8 -3 14
14 42 23 36 5 -3 9 1 9 9 0 18 34 49 44 40 4 -5 6 -3 4 2 -1 6 5 21 15 35 15
21 19 23 27 10 6 -9 10 -10 10 -3 0 24 -101 121 -158 151 -62 33 -147 48 -193
33z"/>
<path d="M5889 7556 c-58 -20 -105 -53 -154 -108 -25 -27 -45 -53 -45 -57 0
-4 12 -18 26 -32 l26 -24 -39 -6 c-36 -6 -36 -6 14 -8 l51 -1 50 -67 c27 -38
67 -98 87 -135 20 -38 40 -68 45 -68 12 0 74 52 108 91 18 20 44 63 60 95 22
49 27 73 27 139 0 67 -4 86 -24 118 -42 69 -141 96 -232 63z"/>
<path d="M7064 7541 c-46 -21 -120 -90 -107 -100 4 -3 25 -22 45 -40 l38 -35
28 27 c60 57 137 57 130 -1 -3 -23 -46 -58 -92 -75 -4 -1 0 -29 10 -61 18 -56
19 -57 47 -52 16 3 36 6 43 6 8 0 14 10 14 25 0 16 10 30 28 42 45 28 82 73
84 101 4 83 -15 130 -65 161 -45 28 -145 28 -203 2z"/>
<path d="M5448 7533 c7 -3 16 -2 19 1 4 3 -2 6 -13 5 -11 0 -14 -3 -6 -6z"/>
<path d="M4678 7523 c7 -3 16 -2 19 1 4 3 -2 6 -13 5 -11 0 -14 -3 -6 -6z"/>
<path d="M4668 7503 c7 -3 16 -2 19 1 4 3 -2 6 -13 5 -11 0 -14 -3 -6 -6z"/>
<path d="M5504 7503 c10 -10 46 -11 40 -1 -3 4 -15 8 -26 8 -12 0 -18 -3 -14
-7z"/>
<path d="M4603 7483 c-16 -6 -17 -33 -1 -33 6 0 8 3 5 7 -4 3 -2 12 4 20 12
14 11 14 -8 6z"/>
<path d="M5564 7469 c-4 -7 -3 -10 4 -5 6 3 18 -4 26 -16 9 -12 16 -18 16 -12
0 6 -9 19 -19 28 -14 13 -21 14 -27 5z"/>
<path d="M9063 7463 c-8 -6 -10 -18 -5 -38 7 -26 14 -30 46 -33 22 -2 40 -10
43 -19 8 -20 -15 -33 -48 -26 -23 4 -28 1 -38 -28 -10 -29 -9 -36 6 -46 20
-16 43 -17 43 -3 0 6 18 10 40 10 95 0 119 103 39 163 -29 21 -106 33 -126 20z"/>
<path d="M4545 7441 c-3 -5 -2 -12 3 -15 5 -3 9 1 9 9 0 17 -3 19 -12 6z"/>
<path d="M5660 7390 c0 -5 5 -10 11 -10 5 0 7 5 4 10 -3 6 -8 10 -11 10 -2 0
-4 -4 -4 -10z"/>
<path d="M5548 7323 c6 -2 18 -2 25 0 6 3 1 5 -13 5 -14 0 -19 -2 -12 -5z"/>
<path d="M5628 7313 c6 -2 18 -2 25 0 6 3 1 5 -13 5 -14 0 -19 -2 -12 -5z"/>
<path d="M5444 7275 c1 -8 4 -16 7 -17 2 -2 3 -1 2 1 -2 2 2 10 8 18 9 10 8
13 -4 13 -8 0 -14 -7 -13 -15z"/>
<path d="M9008 7236 l-16 -33 34 -17 c19 -9 38 -16 43 -16 8 0 31 44 31 59 0
6 -63 41 -73 41 -2 0 -10 -15 -19 -34z"/>
<path d="M4385 7232 c-3 -8 -12 -12 -20 -8 -8 3 -17 1 -20 -4 -4 -6 3 -10 14
-10 11 0 22 4 25 9 3 4 36 7 73 6 38 -1 47 0 21 2 -27 2 -48 8 -48 13 0 14
-39 7 -45 -8z"/>
<path d="M4555 7240 c-3 -6 1 -7 9 -4 18 7 21 14 7 14 -6 0 -13 -4 -16 -10z"/>
<path d="M5409 7233 c-13 -17 -13 -17 6 -3 11 8 22 16 24 17 2 2 0 3 -6 3 -6
0 -17 -8 -24 -17z"/>
<path d="M4579 7228 c-12 -8 -12 -9 1 -5 8 2 23 0 33 -5 10 -5 21 -8 23 -5 10
10 -44 25 -57 15z"/>
<path d="M4690 7200 c8 -5 25 -7 37 -3 17 4 23 1 23 -10 0 -9 4 -19 10 -22 6
-4 7 2 1 17 -6 18 -17 23 -47 25 -27 2 -35 0 -24 -7z"/>
<path d="M5315 7170 c-3 -5 -2 -10 4 -10 5 0 13 5 16 10 3 6 2 10 -4 10 -5 0
-13 -4 -16 -10z"/>
<path d="M4825 7150 c1 -11 4 -23 8 -27 11 -11 47 -11 47 0 0 5 -9 7 -20 4
-16 -4 -20 0 -20 19 0 13 -4 24 -8 24 -5 0 -8 -9 -7 -20z"/>
<path d="M7164 7156 l-51 -11 12 -53 c7 -29 15 -55 18 -58 2 -3 32 0 66 7 61
13 61 13 61 49 0 83 -8 88 -106 66z"/>
<path d="M4795 7150 c3 -5 8 -10 11 -10 2 0 4 5 4 10 0 6 -5 10 -11 10 -5 0
-7 -4 -4 -10z"/>
<path d="M5242 7100 c1 -32 8 -34 12 -3 2 10 8 18 14 18 22 0 20 11 -3 13 -20
1 -24 -3 -23 -28z"/>
<path d="M1360 7080 c-75 -16 -181 -75 -241 -134 -54 -54 -104 -137 -115 -195
-6 -29 -3 -31 75 -70 91 -46 101 -48 101 -23 0 35 60 140 95 167 68 51 121 68
201 63 l74 -5 55 72 c30 40 55 77 55 83 0 32 -209 61 -300 42z"/>
<path d="M4900 7055 c12 -13 28 -21 34 -17 7 4 5 8 -6 10 -10 2 -18 10 -18 18
0 8 -8 14 -17 14 -14 0 -13 -4 7 -25z"/>
<path d="M5203 7035 c0 -8 4 -12 9 -9 4 3 8 9 8 15 0 5 -4 9 -8 9 -5 0 -9 -7
-9 -15z"/>
<path d="M4930 7016 c0 -2 7 -9 15 -16 13 -11 14 -10 9 4 -5 14 -24 23 -24 12z"/>
<path d="M5166 7002 c-2 -4 -1 -13 3 -20 4 -8 11 -5 19 8 10 16 10 20 -2 20
-8 0 -17 -4 -20 -8z"/>
<path d="M4465 6953 c-70 -37 -105 -94 -105 -174 0 -139 148 -231 269 -167
101 52 138 156 91 254 -32 66 -95 104 -169 104 -31 -1 -69 -8 -86 -17z m143
-36 c48 -23 66 -100 37 -157 -20 -38 -43 -50 -98 -50 -132 0 -157 182 -31 220
31 9 55 5 92 -13z m-55 -257 c15 0 27 -4 27 -10 0 -11 -59 -14 -84 -4 -25 9
-19 27 7 20 12 -3 34 -6 50 -6z"/>
<path d="M5493 6943 c-57 -37 -88 -94 -87 -163 3 -227 318 -260 374 -39 21 84
-28 183 -107 215 -55 24 -133 18 -180 -13z m167 -32 c60 -43 67 -116 16 -167
-29 -29 -41 -34 -81 -34 -40 0 -52 5 -81 34 -42 42 -47 97 -12 141 43 54 104
65 158 26z m-67 -251 c15 0 27 -4 27 -10 0 -11 -59 -14 -84 -4 -25 9 -19 27 7
20 12 -3 34 -6 50 -6z"/>
<path d="M4980 6945 c0 -5 5 -17 10 -25 5 -8 10 -10 10 -5 0 6 -5 17 -10 25
-5 8 -10 11 -10 5z"/>
<path d="M5132 6895 c-17 -37 -14 -45 4 -12 9 16 14 31 11 33 -2 2 -9 -7 -15
-21z"/>
<path d="M5022 6850 c7 -10 14 -18 15 -16 6 6 -9 36 -18 36 -5 0 -4 -9 3 -20z"/>
<path d="M1680 6755 c-113 -28 -211 -53 -218 -56 -10 -3 -9 -19 4 -79 10 -41
22 -80 28 -86 8 -9 40 -4 121 16 61 15 113 26 117 23 19 -10 -59 -160 -96
-185 -6 -4 -7 -10 -3 -15 5 -4 12 -1 16 6 10 15 51 6 51 -11 0 -5 -7 -8 -14
-5 -9 4 -17 -2 -21 -14 -7 -22 -31 -25 -51 -5 -13 14 -58 11 -50 -3 3 -4 -42
-8 -99 -10 -63 -1 -105 1 -109 8 -4 5 -14 7 -22 4 -13 -5 -13 -7 -2 -14 10 -7
10 -9 1 -9 -7 0 -13 -7 -13 -15 0 -13 32 -15 225 -15 160 0 225 -3 225 -11 0
-8 5 -8 15 1 8 7 15 19 15 26 0 8 5 13 11 12 18 -4 66 70 89 137 37 107 36
235 -2 322 l-13 30 -205 -52z m22 -420 c0 -5 -5 -11 -11 -13 -6 -2 -11 4 -11
13 0 9 5 15 11 13 6 -2 11 -8 11 -13z m68 -15 c0 -5 -7 -10 -15 -10 -8 0 -15
5 -15 10 0 6 7 10 15 10 8 0 15 -4 15 -10z"/>
<path d="M5087 6784 c-4 -4 -7 -17 -7 -28 1 -19 1 -20 11 -3 11 19 8 43 -4 31z"/>
<path d="M5040 6761 c0 -5 5 -13 10 -16 6 -3 10 -2 10 4 0 5 -4 13 -10 16 -5
3 -10 2 -10 -4z"/>
<path d="M5066 6688 c-3 -13 -5 -32 -5 -43 1 -11 5 -2 10 19 10 42 6 62 -5 24z"/>
<path d="M1201 6421 c-12 -16 -21 -33 -21 -38 0 -4 8 4 18 20 10 15 21 25 24
22 2 -3 5 2 5 10 0 21 -3 19 -26 -14z"/>
<path d="M1294 6365 c11 -8 25 -15 30 -15 6 0 2 7 -8 15 -11 8 -25 15 -30 15
-6 0 -2 -7 8 -15z"/>
<path d="M5625 6366 c-5 -15 -25 -140 -25 -154 0 -9 173 -12 699 -12 661 0
699 -1 696 -17 -2 -10 -4 -550 -4 -1200 l-1 -1183 -1522 -1 c-1463 -2 -2592
-11 -2288 -19 80 -2 117 -5 83 -7 l-63 -4 0 -44 c0 -38 -2 -43 -20 -38 -15 4
-20 0 -20 -16 0 -20 6 -21 83 -23 54 0 24 -4 -88 -10 -108 -5 -185 -5 -211 2
-47 11 -121 -8 -116 -30 1 -6 -2 -9 -7 -6 -10 7 -113 -138 -105 -148 2 -3 1
-4 -2 -1 -17 12 -88 -117 -79 -144 3 -11 -3 -25 -15 -36 -17 -16 -20 -16 -20
-2 0 9 5 19 10 22 6 3 10 14 9 23 0 13 -3 12 -11 -5 -6 -13 -14 -23 -19 -23
-4 0 -6 -8 -4 -17 4 -26 -15 -48 -27 -31 -6 8 -7 5 -3 -11 5 -16 4 -21 -4 -17
-7 5 -11 -1 -11 -14 0 -15 8 -22 30 -27 21 -4 30 -11 30 -24 0 -12 7 -19 20
-19 18 0 20 -7 20 -80 l0 -80 -40 0 -40 0 0 -200 c0 -193 -1 -200 -20 -200
-17 0 -20 -7 -20 -39 0 -35 3 -39 31 -45 17 -3 44 -6 60 -6 15 0 31 -5 34 -10
5 -7 -62 -10 -207 -10 -200 1 -305 10 -317 28 -4 4 -13 8 -21 10 -8 2 -16 8
-18 13 -2 5 -8 9 -13 9 -5 0 -9 -27 -9 -59 0 -54 3 -61 29 -80 16 -12 53 -26
82 -31 76 -15 5581 -14 5649 1 28 6 64 22 80 36 28 23 30 30 30 93 l0 67 -118
169 c-65 93 -224 320 -352 504 -291 418 -282 407 -331 421 -39 12 -39 12 -20
33 10 12 24 31 30 43 8 16 11 370 11 1291 l0 1269 -23 34 c-49 73 -10 70 -795
68 -498 -2 -705 -5 -707 -13z m-2270 -2867 c-4 -5 -63 -9 -133 -9 -160 0 -153
18 8 22 122 3 134 2 125 -13z m277 11 c30 0 47 -4 43 -10 -8 -13 -245 -13
-245 -1 0 11 79 20 124 15 16 -2 51 -4 78 -4z m294 0 c36 0 64 -4 64 -10 0 -6
-47 -10 -120 -10 -68 0 -120 4 -120 9 0 12 46 20 84 15 16 -2 57 -4 92 -4z
m362 4 c53 -15 14 -24 -98 -24 -69 0 -120 4 -120 9 0 15 175 26 218 15z m340
-11 c3 -10 -25 -13 -117 -13 -68 0 -121 4 -121 9 0 14 42 19 144 17 62 -1 91
-5 94 -13z m322 -4 c0 -12 -227 -12 -235 0 -8 13 26 16 138 13 53 -2 97 -8 97
-13z m325 0 c-7 -10 -204 -13 -229 -3 -36 14 -1 19 113 16 73 -2 119 -7 116
-13z m548 11 c63 0 96 -4 92 -10 -4 -6 -55 -10 -121 -10 -98 0 -114 2 -114 16
0 12 6 15 23 10 12 -3 66 -6 120 -6z m735 -8 c5 -15 -224 -17 -233 -3 -8 14
18 17 129 16 67 -1 101 -5 104 -13z m317 -3 c-8 -12 -222 -12 -229 0 -9 15 6
16 124 13 65 -2 108 -7 105 -13z m-1280 1 c-4 -6 -55 -10 -121 -10 -69 0 -114
4 -114 10 0 6 47 10 121 10 77 0 118 -4 114 -10z m640 0 c-4 -6 -55 -10 -121
-10 -69 0 -114 4 -114 10 0 6 47 10 121 10 77 0 118 -4 114 -10z m-2925 -79
c0 -18 -18 -21 -132 -25 -127 -3 -144 -1 -127 20 9 11 42 14 135 14 71 0 124
-4 124 -9z m330 -6 c0 -8 -4 -15 -10 -15 -73 -3 -243 0 -247 4 -19 18 20 26
133 26 104 0 124 -2 124 -15z m328 3 c-5 -15 -258 -24 -258 -10 0 19 18 22
138 22 94 0 123 -3 120 -12z m325 -3 c1 -6 -47 -11 -125 -13 -112 -2 -127 -1
-122 13 5 13 25 15 125 13 69 -2 120 -7 122 -13z m330 0 c1 -6 -47 -11 -125
-13 -117 -2 -141 2 -121 22 11 11 243 2 246 -9z m327 0 c0 -13 -21 -15 -125
-15 -106 0 -124 2 -119 15 5 12 29 15 125 15 99 0 119 -3 119 -15z m330 0 c0
-12 -20 -15 -120 -15 -100 0 -120 3 -120 15 0 13 20 15 120 15 100 0 120 -2
120 -15z m330 0 c0 -12 -20 -15 -120 -15 -100 0 -120 3 -120 15 0 13 20 15
120 15 100 0 120 -2 120 -15z m334 0 c5 -13 -13 -15 -119 -15 -104 0 -125 2
-125 15 0 12 20 15 119 15 96 0 120 -3 125 -15z m330 0 c5 -13 -12 -15 -118
-15 -101 0 -125 3 -130 15 -5 13 12 15 118 15 101 0 125 -3 130 -15z m330 0
c5 -14 -11 -15 -121 -13 -90 2 -128 7 -131 16 -3 9 26 12 121 12 103 0 126 -3
131 -15z m330 0 c5 -13 -12 -15 -118 -15 -101 0 -125 3 -130 15 -5 13 12 15
118 15 101 0 125 -3 130 -15z m-3334 -95 c0 -26 -50 -30 -322 -28 -244 3 -283
5 -283 18 0 13 29 16 185 20 231 6 420 2 420 -10z m670 4 c12 -4 11 -8 -5 -20
-31 -23 -255 -16 -255 7 0 6 9 13 19 17 21 8 217 5 241 -4z m340 -10 c0 -11
-23 -14 -130 -14 -71 0 -130 2 -130 4 0 28 14 31 135 28 101 -3 125 -6 125
-18z m1020 0 c0 -11 -25 -14 -125 -14 -103 0 -125 3 -125 15 0 12 22 15 113
17 125 3 137 2 137 -18z m613 17 c53 -1 67 -4 67 -16 0 -22 -245 -22 -253 -1
-7 19 2 21 65 19 29 -1 83 -2 121 -2z m733 -5 c8 -3 14 -10 14 -16 0 -7 -99
-10 -295 -10 -162 0 -295 2 -295 4 0 2 -2 10 -5 18 -4 11 46 13 281 11 158 -1
293 -4 300 -7z m-3043 -3 c4 -3 2 -12 -4 -20 -8 -9 -43 -13 -130 -13 -112 0
-139 6 -124 30 7 11 247 14 258 3z m1017 -8 c0 -13 -21 -15 -130 -15 -119 0
-142 4 -123 23 3 4 62 7 130 7 103 0 123 -2 123 -15z m340 0 c0 -13 -21 -15
-125 -15 -104 0 -125 2 -125 15 0 13 21 15 125 15 104 0 125 -2 125 -15z m680
0 c0 -13 -21 -15 -125 -15 -104 0 -125 2 -125 15 0 13 21 15 125 15 104 0 125
-2 125 -15z m-1542 -104 c-3 -14 -23 -16 -136 -19 -126 -2 -132 -2 -132 17 0
19 8 21 123 23 138 3 149 2 145 -21z m-720 2 c-3 -17 -29 -18 -382 -23 -208
-3 -381 -3 -385 0 -4 3 -10 13 -14 22 -5 15 23 17 389 18 374 1 395 0 392 -17z
m368 1 c-3 -9 -6 -18 -6 -20 0 -6 -256 -5 -263 2 -3 3 -3 12 0 20 4 11 34 14
140 14 119 0 134 -2 129 -16z m699 -4 c0 -13 -21 -15 -130 -15 -116 0 -130 2
-133 18 -3 16 6 17 130 15 110 -3 133 -6 133 -18z m348 6 c3 -8 3 -17 0 -20
-11 -10 -251 -7 -258 4 -15 24 12 30 130 30 96 0 124 -3 128 -14z m347 -6 c0
-20 -5 -20 -127 -18 -112 3 -128 5 -131 21 -3 15 8 17 127 17 125 0 131 -1
131 -20z m354 5 c9 -23 -8 -26 -139 -23 -105 3 -120 5 -123 21 -3 15 8 17 126
17 108 0 131 -3 136 -15z m349 1 c3 -8 3 -17 0 -20 -11 -10 -251 -7 -258 4
-15 24 12 30 130 30 96 0 124 -3 128 -14z m875 -6 c2 -13 -45 -15 -380 -15
-358 0 -383 1 -386 18 -3 16 18 17 380 15 331 -3 383 -5 386 -18z m-3195 -99
c5 -1 7 -11 5 -23 -3 -22 -6 -23 -140 -26 -113 -2 -138 0 -138 11 0 35 40 43
185 41 44 -1 84 -2 88 -3z m374 -5 c1 -1 0 -12 -4 -24 -5 -21 -10 -22 -139
-22 -73 0 -135 4 -138 8 -3 5 1 17 8 28 12 17 25 19 142 15 71 -1 130 -4 131
-5z m1445 -9 c4 -7 6 -16 5 -22 -3 -7 -242 -11 -685 -13 -721 -2 -694 -4 -677
40 7 18 1346 13 1357 -5z m360 0 c17 -27 -2 -32 -127 -32 -112 0 -129 2 -139
18 -8 13 -8 19 0 25 20 12 258 2 266 -11z m720 -1 c18 -27 5 -31 -115 -30 -67
1 -128 2 -134 3 -20 2 -15 39 4 43 41 8 238 -5 245 -16z m366 -5 l15 -22 -139
3 c-130 3 -139 4 -142 23 -3 19 3 20 125 19 119 -1 128 -3 141 -23z m-3980 -3
c-3 -22 -6 -23 -145 -26 -114 -2 -143 0 -143 11 0 31 24 37 158 37 133 0 133
0 130 -22z m365 16 c3 -4 2 -15 -4 -25 -9 -17 -23 -19 -144 -19 -75 0 -135 4
-135 9 0 38 10 41 144 41 73 0 136 -3 139 -6z m2891 -10 c4 -9 4 -20 1 -23 -5
-4 -217 -6 -257 -2 -5 1 -8 10 -8 21 0 19 7 20 129 20 110 0 130 -2 135 -16z
m-1475 -135 c121 -1 124 -2 81 -14 -28 -8 -36 -13 -22 -14 20 -1 22 -6 22 -61
0 -53 -2 -60 -20 -60 -19 0 -20 -7 -20 -129 0 -127 1 -130 23 -133 12 -2 -165
-7 -395 -11 -418 -8 -481 -5 -506 26 -8 9 2 64 35 196 45 178 47 184 77 198
26 11 81 13 315 8 156 -3 341 -5 410 -6z"/>
<path d="M1148 6352 c-31 -34 -39 -59 -24 -71 16 -13 32 2 21 19 -8 13 14 42
26 34 5 -3 9 2 9 10 0 23 -16 27 -32 8z"/>
<path d="M3043 6363 c9 -2 23 -2 30 0 6 3 -1 5 -18 5 -16 0 -22 -2 -12 -5z"/>
<path d="M3200 6330 c0 -33 3 -40 20 -40 13 0 20 -7 20 -20 0 -18 7 -20 63
-21 l62 -2 -75 -8 c-41 -4 -113 -10 -160 -14 -46 -3 -87 -8 -89 -11 -2 -2 153
-4 346 -4 192 0 499 -3 681 -7 l332 -6 0 55 c0 31 -3 70 -6 87 l-6 31 -594 0
-594 0 0 -40z m100 10 c-14 -4 -34 -8 -45 -8 -16 0 -15 2 5 8 14 4 34 8 45 8
16 0 15 -2 -5 -8z"/>
<path d="M4704 6309 c3 -34 6 -73 6 -85 l0 -24 288 0 289 0 13 73 c7 39 15 78
17 85 4 9 -61 12 -307 12 l-313 0 7 -61z"/>
<path d="M1206 6345 c-11 -8 -15 -15 -9 -15 6 0 16 7 23 15 16 19 11 19 -14 0z"/>
<path d="M1150 6263 c1 -17 47 -41 60 -33 12 7 10 10 -5 15 -11 4 -28 11 -37
16 -10 5 -18 6 -18 2z"/>
<path d="M1735 6250 c-3 -5 -14 -10 -25 -10 -10 0 -21 -7 -24 -16 -3 -8 -10
-12 -16 -9 -5 3 -10 1 -10 -5 0 -6 -4 -9 -9 -6 -4 3 -19 -4 -32 -15 l-24 -21
25 7 c46 13 157 84 133 85 -6 0 -15 -4 -18 -10z"/>
<path d="M1240 6195 c14 -7 27 -11 30 -9 6 7 -22 24 -40 23 -9 0 -5 -6 10 -14z"/>
<path d="M1292 6192 c-9 -6 -5 -12 13 -20 14 -7 34 -12 43 -11 9 0 2 5 -17 11
-26 7 -31 12 -20 19 8 5 10 9 4 9 -5 0 -16 -4 -23 -8z"/>
<path d="M1387 6158 c-14 -9 13 -11 103 -8 36 1 68 5 72 9 10 9 -161 8 -175
-1z"/>
<path d="M8598 6129 c-23 -25 -23 -33 7 -77 20 -29 25 -49 25 -95 0 -72 -20
-117 -71 -161 -73 -62 -171 -70 -245 -20 -19 13 -36 24 -38 24 -2 0 -16 -12
-31 -26 l-29 -27 -23 28 -24 27 -103 -104 c-122 -122 -132 -138 -115 -179 6
-17 20 -34 30 -39 41 -22 62 -10 178 103 l116 114 45 -18 c140 -56 308 15 371
156 41 90 22 230 -38 297 -20 22 -33 22 -55 -3z"/>
<path d="M1900 5467 c-54 -28 -88 -71 -75 -93 6 -8 22 -23 37 -32 26 -16 28
-15 55 10 40 38 83 42 83 8 0 -13 -13 -28 -35 -41 -19 -12 -33 -24 -32 -27 2
-4 11 -24 21 -44 9 -21 24 -38 32 -38 24 0 54 19 54 34 0 8 16 30 35 49 27 27
35 43 35 71 0 108 -105 159 -210 103z"/>
<path d="M2003 5189 c-18 -5 -34 -13 -37 -17 -5 -8 15 -77 25 -86 3 -3 25 1
49 8 49 14 58 33 41 79 -11 29 -25 31 -78 16z"/>
<path d="M816 4978 c-15 -13 -29 -38 -32 -55 -6 -32 -6 -33 30 -33 21 0 35 -3
33 -7 -3 -5 19 -8 49 -9 43 0 53 3 49 14 -3 7 -5 22 -5 32 0 25 -54 80 -78 80
-12 0 -32 -10 -46 -22z"/>
<path d="M8823 4988 c-24 -11 -53 -64 -53 -96 0 -16 7 -19 49 -18 27 1 46 5
43 10 -3 5 13 7 36 3 33 -4 42 -2 42 10 0 35 -53 103 -79 102 -9 0 -26 -5 -38
-11z"/>
<path d="M766 4871 c-4 -7 -5 -15 -2 -18 9 -9 19 4 14 18 -4 11 -6 11 -12 0z"/>
<path d="M9000 4870 c0 -6 5 -8 11 -4 6 3 16 0 21 -7 8 -12 9 -11 5 1 -4 18
-37 27 -37 10z"/>
<path d="M866 4843 c10 -40 14 -41 14 -5 0 18 -5 32 -10 32 -6 0 -8 -11 -4
-27z"/>
<path d="M8837 4859 c7 -7 15 -10 18 -7 3 3 -2 9 -12 12 -14 6 -15 5 -6 -5z"/>
<path d="M8905 4860 c-3 -5 3 -10 14 -10 12 0 21 5 21 10 0 6 -6 10 -14 10 -8
0 -18 -4 -21 -10z"/>
<path d="M842 4830 c0 -14 2 -19 5 -12 2 6 2 18 0 25 -3 6 -5 1 -5 -13z"/>
<path d="M9121 4793 c-1 -12 -10 -24 -22 -28 -16 -6 -18 -9 -8 -22 11 -12 15
-11 26 12 8 14 12 34 10 43 -3 12 -5 11 -6 -5z"/>
<path d="M563 4760 c-7 -10 -29 -20 -53 -23 -108 -14 -123 -127 -20 -158 27
-8 40 -18 43 -33 2 -12 3 17 3 64 0 97 16 141 54 151 14 4 23 8 20 9 -23 8
-38 5 -47 -10z"/>
<path d="M5340 4767 c-19 -6 -58 -34 -86 -62 -40 -40 -54 -62 -64 -104 -20
-84 0 -162 59 -224 28 -31 91 -67 115 -67 8 0 36 -19 63 -41 26 -23 62 -48 80
-55 62 -26 168 -12 200 27 10 12 7 21 -11 44 -22 27 -26 29 -49 16 -33 -18
-75 -17 -94 1 -13 13 -11 17 16 28 17 7 46 29 64 50 120 132 68 331 -102 388
-42 15 -144 14 -191 -1z m156 -106 c125 -57 81 -251 -57 -251 -140 0 -175 199
-45 256 41 18 53 17 102 -5z"/>
<path d="M620 4760 c0 -5 5 -10 11 -10 5 0 7 5 4 10 -3 6 -8 10 -11 10 -2 0
-4 -4 -4 -10z"/>
<path d="M673 4763 c9 -2 23 -2 30 0 6 3 -1 5 -18 5 -16 0 -22 -2 -12 -5z"/>
<path d="M738 4763 c6 -2 18 -2 25 0 6 3 1 5 -13 5 -14 0 -19 -2 -12 -5z"/>
<path d="M887 4757 c-3 -8 1 -14 8 -14 7 0 11 6 8 14 -3 7 -6 13 -8 13 -2 0
-5 -6 -8 -13z"/>
<path d="M4274 4757 c-2 -7 -3 -109 -2 -227 l3 -215 62 -3 62 -3 3 78 3 78
103 3 102 3 0 49 0 49 -102 3 -103 3 -3 48 -4 47 109 2 c59 0 114 1 121 1 8
-1 12 15 12 48 l0 49 -180 0 c-137 0 -182 -3 -186 -13z"/>
<path d="M4797 4688 c-20 -46 -65 -149 -101 -230 l-65 -148 65 0 65 0 19 45
19 45 100 0 99 0 18 -45 17 -45 63 0 c35 0 64 4 64 9 0 10 -17 51 -58 144 -16
34 -53 117 -83 184 l-54 122 -66 1 -66 0 -36 -82z m136 -125 c21 -52 23 -62
10 -67 -24 -9 -91 -7 -98 3 -7 13 47 143 56 134 4 -5 18 -36 32 -70z"/>
<path d="M8866 4754 c-4 -9 -13 -14 -21 -10 -8 3 -15 1 -15 -4 0 -13 27 -13
35 0 4 6 11 8 16 5 5 -3 6 1 3 9 -8 20 -10 20 -18 0z"/>
<path d="M8943 4763 c9 -2 25 -2 35 0 9 3 1 5 -18 5 -19 0 -27 -2 -17 -5z"/>
<path d="M9018 4763 c6 -2 18 -2 25 0 6 3 1 5 -13 5 -14 0 -19 -2 -12 -5z"/>
<path d="M604 4742 c3 -5 0 -13 -6 -15 -9 -4 -10 -6 -1 -6 17 -1 25 16 12 25
-7 4 -9 3 -5 -4z"/>
<path d="M9167 4713 c5 -16 7 -50 6 -78 -1 -37 1 -45 8 -30 8 17 9 16 6 -7 -5
-34 14 -37 61 -8 40 24 56 61 41 93 -14 31 -59 57 -98 57 -29 0 -31 -2 -24
-27z"/>
<path d="M555 4709 c-4 -12 -2 -26 5 -33 10 -8 12 -7 7 7 -4 9 -2 17 3 17 6 0
10 7 10 15 0 22 -18 18 -25 -6z"/>
<path d="M870 4726 c0 -9 30 -14 35 -6 4 6 -3 10 -14 10 -12 0 -21 -2 -21 -4z"/>
<path d="M9145 4700 c-3 -5 -1 -10 4 -10 6 0 11 5 11 10 0 6 -2 10 -4 10 -3 0
-8 -4 -11 -10z"/>
<path d="M1020 4631 c0 -39 43 -75 71 -60 22 11 23 22 8 52 -15 28 -28 37 -56
37 -19 0 -23 -6 -23 -29z m68 -30 c2 -13 -2 -21 -11 -21 -20 0 -36 22 -34 48
1 19 3 20 22 8 11 -7 21 -23 23 -35z"/>
<path d="M8627 4642 c-10 -10 -17 -31 -17 -45 0 -21 5 -27 23 -27 12 0 27 4
33 8 18 12 36 52 30 68 -8 20 -50 17 -69 -4z m46 2 c-7 -3 -9 -12 -6 -20 6
-17 -14 -44 -33 -44 -22 0 -16 36 9 53 12 9 27 16 32 16 6 0 5 -3 -2 -5z"/>
<path d="M883 4569 c-41 -15 -19 -109 27 -109 36 0 52 48 30 89 -12 24 -30 30
-57 20z m55 -53 c-4 -26 -37 -28 -52 -3 -9 15 -7 21 8 32 24 18 48 2 44 -29z"/>
<path d="M8772 4545 c-17 -36 -15 -49 8 -70 17 -15 24 -16 45 -7 28 13 43 57
28 81 -6 9 -23 17 -40 19 -23 2 -32 -2 -41 -23z m56 -29 c-2 -15 -10 -21 -28
-21 -30 0 -38 26 -14 49 20 21 47 4 42 -28z"/>
<path d="M9172 4525 c0 -16 2 -22 5 -12 2 9 2 23 0 30 -3 6 -5 -1 -5 -18z"/>
<path d="M9111 4393 c-19 -27 -25 -40 -15 -31 18 16 59 78 51 78 -2 0 -18 -21
-36 -47z"/>
<path d="M620 4360 c0 -13 18 -22 24 -11 3 5 -1 11 -9 15 -8 3 -15 1 -15 -4z"/>
<path d="M9050 4345 c-7 -9 -31 -24 -54 -34 -28 -13 -34 -19 -18 -18 12 1 22
4 22 8 0 4 11 10 25 13 13 3 29 15 35 26 13 24 8 26 -10 5z"/>
<path d="M694 4308 c-4 -6 -3 -8 4 -4 6 3 13 2 17 -4 3 -5 11 -10 17 -10 7 0
6 6 -2 15 -15 18 -26 19 -36 3z"/>
<path d="M1016 4311 c-3 -5 1 -11 9 -14 9 -4 12 -1 8 9 -6 16 -10 17 -17 5z"/>
<path d="M973 4303 c-13 -2 -23 -8 -23 -12 0 -5 -40 -8 -89 -7 -85 1 -93 -12
-11 -17 19 -2 41 -6 48 -10 7 -5 12 -3 12 7 0 18 26 22 32 5 5 -15 55 9 55 27
0 8 -1 13 -1 13 -1 -1 -11 -4 -23 -6z"/>
<path d="M8706 4302 c-3 -5 1 -9 9 -9 8 0 15 4 15 9 0 4 -4 8 -9 8 -6 0 -12
-4 -15 -8z"/>
<path d="M8920 4282 c0 -8 -10 -11 -27 -7 -23 4 -22 3 5 -7 35 -12 53 -5 34
14 -9 9 -12 9 -12 0z"/>
<path d="M8828 4273 c7 -3 16 -2 19 1 4 3 -2 6 -13 5 -11 0 -14 -3 -6 -6z"/>
<path d="M8654 4229 c-15 -31 -2 -41 15 -11 6 9 11 11 11 5 0 -7 9 -13 20 -13
31 0 26 37 -5 43 -21 3 -29 -1 -41 -24z"/>
<path d="M9040 4250 c0 -5 5 -10 11 -10 5 0 7 5 4 10 -3 6 -8 10 -11 10 -2 0
-4 -4 -4 -10z"/>
<path d="M9055 4220 c3 -5 8 -10 11 -10 2 0 4 5 4 10 0 6 -5 10 -11 10 -5 0
-7 -4 -4 -10z"/>
<path d="M1018 4193 c12 -2 30 -2 40 0 9 3 -1 5 -23 4 -22 0 -30 -2 -17 -4z"/>
<path d="M1085 4191 c-3 -6 -25 -11 -47 -11 -58 0 -43 -8 20 -11 28 -2 52 -7
52 -12 0 -6 3 -8 6 -4 3 3 -1 15 -9 27 -9 13 -17 17 -22 11z"/>
<path d="M8610 4190 c0 -5 5 -10 10 -10 6 0 10 5 10 10 0 6 -4 10 -10 10 -5 0
-10 -4 -10 -10z"/>
<path d="M1613 4087 l-73 -102 0 -237 0 -238 -170 0 -170 0 0 -30 c0 -23 -4
-30 -20 -30 -14 0 -20 -7 -20 -21 0 -18 2 -19 15 -9 13 11 15 7 14 -34 -1 -25
1 -49 5 -54 4 -4 236 -8 514 -10 l507 -3 63 86 62 85 -2 347 -3 348 -325 2
-325 3 -72 -103z m272 -242 c44 -18 82 -60 95 -105 6 -22 21 -41 39 -52 44
-24 65 -71 57 -127 -4 -25 -7 -50 -8 -56 -1 -5 2 -19 5 -30 7 -20 3 -21 -79
-23 -99 -2 -131 10 -163 62 -24 38 -66 52 -126 40 l-35 -6 11 31 c9 24 8 43
-1 76 -18 63 -6 109 40 155 50 50 103 62 165 35z"/>
<path d="M1774 3820 c-11 -4 -33 -23 -48 -41 -24 -29 -27 -38 -23 -83 11 -105
8 -100 57 -113 63 -17 90 -16 129 5 37 20 71 73 71 110 0 38 -31 93 -64 113
-32 20 -86 24 -122 9z m80 -46 c20 -20 21 -58 1 -74 -8 -7 -15 -19 -15 -26 0
-19 -19 -18 -27 2 -3 9 3 23 15 35 12 10 19 26 16 34 -7 17 -30 20 -39 5 -9
-14 -25 -12 -25 3 0 8 10 19 23 25 30 15 33 14 51 -4z m-14 -144 c0 -5 -7 -10
-15 -10 -8 0 -15 5 -15 10 0 6 7 10 15 10 8 0 15 -4 15 -10z"/>
<path d="M1977 3649 c-18 -44 -51 -77 -95 -95 -29 -13 -31 -17 -21 -35 6 -11
27 -27 46 -35 30 -13 43 -13 84 -3 33 9 48 17 45 26 -3 7 -1 15 4 18 6 4 10
26 10 50 0 35 -6 52 -29 77 l-29 32 -15 -35z"/>
<path d="M7473 4183 c-10 -4 -13 -83 -13 -351 l1 -347 62 -80 63 -80 369 -3
c397 -3 551 3 557 21 3 7 3 33 0 60 -3 34 -8 47 -20 47 -24 0 16 40 42 42 39
2 -108 16 -191 17 l-83 1 0 239 0 238 -72 101 -73 102 -315 -1 c-173 0 -321
-3 -327 -6z m301 -395 c23 -38 -35 -78 -61 -42 -17 23 -16 29 3 49 20 19 43
16 58 -7z m351 -18 l0 -25 -155 0 c-143 0 -155 1 -158 19 -2 10 2 23 10 27 7
5 78 8 158 6 l145 -2 0 -25z m-352 -101 c16 -26 1 -49 -32 -49 -21 0 -32 6
-36 20 -14 43 44 67 68 29z m354 -5 c13 -34 -24 -44 -163 -44 -104 0 -134 3
-144 15 -7 8 -10 22 -6 30 4 12 31 15 156 15 131 0 151 -2 157 -16z m-350
-110 c14 -37 -41 -71 -66 -40 -9 11 -10 20 -1 35 13 25 58 28 67 5z m343 1 c7
-8 10 -22 6 -30 -4 -12 -31 -15 -156 -15 -125 0 -152 3 -156 15 -4 8 -1 22 6
30 10 12 40 15 150 15 110 0 140 -3 150 -15z"/>
<path d="M8660 4180 c-21 -7 -19 -8 18 -9 23 -1 42 4 42 9 0 12 -24 12 -60 0z"/>
<path d="M9086 4182 c-2 -4 -1 -14 4 -22 7 -11 9 -9 7 8 -1 24 -3 26 -11 14z"/>
<path d="M920 4161 c0 -6 4 -12 8 -15 5 -3 9 1 9 9 0 8 -4 15 -9 15 -4 0 -8
-4 -8 -9z"/>
<path d="M8608 4163 c7 -3 16 -2 19 1 4 3 -2 6 -13 5 -11 0 -14 -3 -6 -6z"/>
<path d="M8755 4160 c-3 -5 -2 -10 4 -10 5 0 13 5 16 10 3 6 2 10 -4 10 -5 0
-13 -4 -16 -10z"/>
<path d="M8800 4126 c0 -2 8 -10 18 -17 15 -13 16 -12 3 4 -13 16 -21 21 -21
13z"/>
<path d="M8868 4033 c8 -18 17 -31 20 -29 2 2 -1 14 -8 25 -6 12 -9 25 -6 30
3 4 -1 8 -8 8 -12 0 -11 -7 2 -34z"/>
<path d="M824 4025 c-16 -12 -17 -14 -3 -15 9 0 19 7 23 15 7 19 5 19 -20 0z"/>
<path d="M9137 4023 c-4 -3 -7 -11 -7 -17 0 -6 5 -5 12 2 6 6 9 14 7 17 -3 3
-9 2 -12 -2z"/>
<path d="M815 3990 c-3 -5 -1 -10 4 -10 6 0 11 5 11 10 0 6 -2 10 -4 10 -3 0
-8 -4 -11 -10z"/>
<path d="M9142 3984 c-7 -8 -8 -14 -3 -14 10 0 25 19 20 25 -2 1 -10 -3 -17
-11z"/>
<path d="M640 3976 c0 -2 9 -6 20 -9 11 -3 20 -1 20 4 0 5 -9 9 -20 9 -11 0
-20 -2 -20 -4z"/>
<path d="M9008 3973 c6 -2 18 -2 25 0 6 3 1 5 -13 5 -14 0 -19 -2 -12 -5z"/>
<path d="M811 3954 c0 -11 3 -14 6 -6 3 7 2 16 -1 19 -3 4 -6 -2 -5 -13z"/>
<path d="M8890 3962 c0 -5 7 -9 15 -9 8 0 15 4 15 9 0 4 -7 8 -15 8 -8 0 -15
-4 -15 -8z"/>
<path d="M8895 3920 c-16 -7 -17 -9 -3 -9 9 -1 20 4 23 9 7 11 7 11 -20 0z"/>
<path d="M818 3913 c7 -3 16 -2 19 1 4 3 -2 6 -13 5 -11 0 -14 -3 -6 -6z"/>
<path d="M868 3903 c7 -3 16 -2 19 1 4 3 -2 6 -13 5 -11 0 -14 -3 -6 -6z"/>
<path d="M9040 3906 c0 -2 7 -7 16 -10 8 -3 12 -2 9 4 -6 10 -25 14 -25 6z"/>
<path d="M9181 3864 c0 -11 3 -14 6 -6 3 7 2 16 -1 19 -3 4 -6 -2 -5 -13z"/>
<path d="M535 3839 c-10 -30 0 -33 13 -4 6 14 7 25 2 25 -5 0 -12 -9 -15 -21z"/>
<path d="M8843 3773 c9 -2 23 -2 30 0 6 3 -1 5 -18 5 -16 0 -22 -2 -12 -5z"/>
<path d="M8913 3720 c0 -30 2 -43 4 -27 2 15 2 39 0 55 -2 15 -4 2 -4 -28z"/>
<path d="M803 3665 c0 -33 2 -45 4 -27 2 18 2 45 0 60 -2 15 -4 0 -4 -33z"/>
<path d="M9164 3661 c1 -17 4 -31 9 -31 10 0 9 32 -2 48 -5 9 -8 3 -7 -17z"/>
<path d="M8902 3615 c0 -16 2 -22 5 -12 2 9 2 23 0 30 -3 6 -5 -1 -5 -18z"/>
<path d="M9155 3610 c3 -5 8 -10 11 -10 2 0 4 5 4 10 0 6 -5 10 -11 10 -5 0
-7 -4 -4 -10z"/>
<path d="M558 3594 c6 -12 9 -24 6 -26 -2 -3 2 -10 10 -17 26 -21 24 12 -2 39
-21 21 -23 22 -14 4z"/>
<path d="M811 3584 c0 -11 3 -14 6 -6 3 7 2 16 -1 19 -3 4 -6 -2 -5 -13z"/>
<path d="M9122 3550 c-12 -32 -11 -34 4 -19 9 9 14 25 12 35 -3 14 -7 10 -16
-16z"/>
<path d="M816 3525 c8 -37 14 -45 14 -19 0 10 -5 26 -10 34 -8 11 -9 7 -4 -15z"/>
<path d="M8890 3536 c0 -8 4 -17 9 -20 5 -4 7 3 4 14 -6 23 -13 26 -13 6z"/>
<path d="M619 3510 c25 -21 46 -27 36 -10 -3 6 -13 10 -21 10 -8 0 -14 5 -14
10 0 6 -6 10 -12 10 -7 -1 -2 -10 11 -20z"/>
<path d="M665 3520 c3 -5 8 -10 11 -10 2 0 4 5 4 10 0 6 -5 10 -11 10 -5 0 -7
-4 -4 -10z"/>
<path d="M9081 3514 c0 -11 3 -14 6 -6 3 7 2 16 -1 19 -3 4 -6 -2 -5 -13z"/>
<path d="M8881 3484 c0 -11 3 -14 6 -6 3 7 2 16 -1 19 -3 4 -6 -2 -5 -13z"/>
<path d="M8911 3484 c0 -11 3 -14 6 -6 3 7 2 16 -1 19 -3 4 -6 -2 -5 -13z"/>
<path d="M2493 3155 c-3 -9 -3 -18 -1 -21 3 -3 8 4 11 16 6 23 -1 27 -10 5z"/>
<path d="M2500 3115 c-7 -9 -19 -14 -27 -11 -8 3 -11 1 -8 -4 3 -6 17 -10 31
-10 17 0 24 5 24 20 0 24 -4 25 -20 5z"/>
<path d="M2415 3040 c-3 -5 -1 -10 4 -10 6 0 11 5 11 10 0 6 -2 10 -4 10 -3 0
-8 -4 -11 -10z"/>
<path d="M2383 2985 c0 -8 4 -12 9 -9 5 3 6 10 3 15 -9 13 -12 11 -12 -6z"/>
<path d="M2336 2903 c-6 -14 -5 -15 5 -6 7 7 10 15 7 18 -3 3 -9 -2 -12 -12z"/>
</g>
</svg>
