<svg width="25" height="25" viewBox="0 0 25 25" fill="none" xmlns="http://www.w3.org/2000/svg">
<path d="M20.8087 15.625H19.2673C19.0629 15.625 18.8669 15.7073 18.7224 15.8538C18.5778 16.0003 18.4966 16.199 18.4966 16.4062V21.875H3.08277V6.25H10.019C10.2234 6.25 10.4194 6.16769 10.564 6.02118C10.7085 5.87466 10.7897 5.67595 10.7897 5.46875V3.90625C10.7897 3.69905 10.7085 3.50034 10.564 3.35382C10.4194 3.20731 10.2234 3.125 10.019 3.125H2.31208C1.69888 3.125 1.11079 3.37193 0.677192 3.81147C0.243593 4.25101 0 4.84715 0 5.46875L0 22.6562C0 23.2779 0.243593 23.874 0.677192 24.3135C1.11079 24.7531 1.69888 25 2.31208 25H19.2673C19.8805 25 20.4686 24.7531 20.9022 24.3135C21.3358 23.874 21.5794 23.2779 21.5794 22.6562V16.4062C21.5794 16.199 21.4982 16.0003 21.3537 15.8538C21.2091 15.7073 21.0131 15.625 20.8087 15.625ZM23.5061 0H17.3406C16.3112 0 15.7968 1.26514 16.5217 2.00195L18.2428 3.74658L6.50272 15.6431C6.39495 15.7519 6.30943 15.8813 6.25108 16.0237C6.19274 16.1662 6.1627 16.3189 6.1627 16.4731C6.1627 16.6274 6.19274 16.7801 6.25108 16.9225C6.30943 17.065 6.39495 17.1944 6.50272 17.3032L7.59469 18.4082C7.70209 18.5175 7.82971 18.6041 7.97023 18.6633C8.11075 18.7224 8.2614 18.7529 8.41355 18.7529C8.56571 18.7529 8.71636 18.7224 8.85688 18.6633C8.9974 18.6041 9.12502 18.5175 9.23242 18.4082L20.9667 6.50977L22.6873 8.25195C23.4098 8.98438 24.6622 8.47168 24.6622 7.42188V1.17188C24.6622 0.861074 24.5404 0.563003 24.3236 0.343234C24.1068 0.123465 23.8127 0 23.5061 0Z" fill="white"/>
</svg>
