<?xml version="1.0" encoding="utf-8"?>
<!-- Generator: Adobe Illustrator 19.0.1, SVG Export Plug-In . SVG Version: 6.00 Build 0)  -->
<svg version="1.1" xmlns="http://www.w3.org/2000/svg" xmlns:xlink="http://www.w3.org/1999/xlink" x="0px" y="0px"
	 viewBox="0 0 81.5 128" style="enable-background:new 0 0 81.5 128;" xml:space="preserve">
<style type="text/css">
	.st0{fill:none;stroke:#000000;stroke-width:12;stroke-miterlimit:10;}
	.st1{display:none;}
	.st2{display:inline;fill:#7DE8D3;}
	.st3{fill:#19DFFF;}
	.st4{display:inline;}
	.st5{display:inline;fill:#19DFFF;}
</style>
<g id="Layer_3">
	<path d="M75.5,62.4L75.5,62.4c-3.3,0-6-2.7-6-6V6c0-3.3,2.7-6,6-6h0c3.3,0,6,2.7,6,6v50.3C81.5,59.7,78.8,62.4,75.5,62.4z"/>
	<path d="M6,128L6,128c-3.3,0-6-2.7-6-6l0-50.3c0-3.3,2.7-6,6-6h0c3.3,0,6,2.7,6,6V122C12,125.3,9.3,128,6,128z"/>
</g>
<g id="Layer_3_copy">
	<path d="M78.5,62.4h-6c-1.7,0-3-1.3-3-3V3c0-1.7,1.3-3,3-3h6c1.6,0,3,1.4,3,3v56.3C81.5,61,80.2,62.4,78.5,62.4z"/>
	<path d="M9,128H3c-1.6,0-3-1.3-3-3l0-56.3c0-1.6,1.4-3,3-3h6c1.6,0,3,1.4,3,3V125C12,126.6,10.6,128,9,128z"/>
</g>
<g id="Layer_1">
	<path class="st0" d="M60.5,96.8H21c-8.3,0-15-6.8-15-15V46.2c0-8.3,6.8-15,15-15h39.5c8.2,0,15,6.8,15,15v35.6
		C75.5,90,68.8,96.8,60.5,96.8z"/>
</g>
<g id="Layer_6" class="st1">
	<circle class="st2" cx="27.8" cy="64" r="7.5"/>
	<circle class="st2" cx="54.8" cy="64" r="7.5"/>
</g>
<g id="Layer_6_copy">
	<circle class="st3" cx="27.8" cy="64" r="7.5"/>
	<circle class="st3" cx="53.8" cy="64" r="7.5"/>
</g>
<g id="Layer_2_copy" class="st1">
	<g class="st4">
		<g>
			<path class="st3" d="M27.8,70c7.7,0,7.7-12,0-12C20,58,20,70,27.8,70L27.8,70z"/>
		</g>
	</g>
	<g class="st4">
		<g>
			<path class="st3" d="M54.8,70c7.7,0,7.7-12,0-12C47,58,47,70,54.8,70L54.8,70z"/>
		</g>
	</g>
</g>
<g id="Layer_7" class="st1">
	<circle class="st5" cx="19.8" cy="45" r="7.5"/>
</g>
</svg>
